<svg id="Layer_1" data-name="Layer 1" xmlns="http://www.w3.org/2000/svg" viewBox="0 0 24 24"><defs><style>.cls-1{fill:none;stroke:#fff;stroke-miterlimit:10;stroke-width:2px;}</style></defs><title>radio</title><path class="cls-1" d="M12,21.07l-.77-.7c-2-1.81-4-3.57-5.83-5.53a14.13,14.13,0,0,1-2.63-3.68A5.94,5.94,0,0,1,2.61,6.1,5.38,5.38,0,0,1,8.1,3a6,6,0,0,1,3.81,1.93A.41.41,0,0,1,12,5l.21-.22a5.71,5.71,0,0,1,7.27-1,5.28,5.28,0,0,1,2.38,5.23,8.16,8.16,0,0,1-1.8,4.08,32.5,32.5,0,0,1-3.9,4.14c-1.32,1.24-2.67,2.45-4,3.68Z"/></svg>