<svg id="Layer_1" data-name="Layer 1" xmlns="http://www.w3.org/2000/svg" viewBox="0 0 760.13 212.13"><defs><style>.cls-1{font-size:65.02px;font-family:ROGFonts-Regular, ROG Fonts;}.cls-2{font-size:176.96px;font-family:Otto;letter-spacing:0.05em;}</style></defs><title>radio</title><path d="M67.14,48.83a8.33,8.33,0,0,1-2.06-5.66l-.55,0a8.94,8.94,0,0,0,10,9.07l0-.57A8.37,8.37,0,0,1,67.14,48.83Z"/><path d="M80.62,36.28A8.41,8.41,0,0,1,82.72,44l.56,0a8.94,8.94,0,0,0-8.09-10.84v.56A8.36,8.36,0,0,1,80.62,36.28Z"/><path d="M84.11,33a13.2,13.2,0,0,1,3.5,11.14h.55A13.75,13.75,0,0,0,75.3,28.33v.55A13.14,13.14,0,0,1,84.11,33Z"/><path d="M63.5,52a13.22,13.22,0,0,1-3.24-9.16l-.55,0A13.77,13.77,0,0,0,74.23,57.07l0-.56A13.18,13.18,0,0,1,63.5,52Z"/><path d="M58.05,56.73a20.35,20.35,0,0,1-5-14.39l-.55,0a21,21,0,0,0,21.2,22l0-.56A20.38,20.38,0,0,1,58.05,56.73Z"/><path d="M89.33,28a20.39,20.39,0,0,1,5.52,16.29h.56A21,21,0,0,0,75.48,21.12l0,.55A20.33,20.33,0,0,1,89.33,28Z"/><path d="M114.19,133.23c.59-4,.35-4,4-2.57a8.87,8.87,0,0,0,9.08-2.42c2.16-2.54,1.44-5-.14-7.44a12.09,12.09,0,0,1-1.38-3.37,5.59,5.59,0,0,0-4.6-4.49c-2.81-.57-5.54-.83-7.31,2s-4.24,3.39-7.08,2.55a129.11,129.11,0,0,1-12.66-4.3c-10.24-4.27-20.36-5.31-30.63-.13-4.74,2.4-11.56-.48-13.52-5.47-2.83-7.19.23-16.19,7.2-20.64A37.23,37.23,0,0,1,64,83.78c6.5-2.46,12.82-5.24,17.87-10.2a18.58,18.58,0,0,0,3.65-22.27,13.38,13.38,0,0,0-9.91-7.41,3.26,3.26,0,0,0-2.49.79A1.42,1.42,0,0,0,72.75,46a3,3,0,0,0,1.56,1.85c10.3,5.5,11.32,17.62,1.59,24.1-4,2.65-8.79,4-13.24,5.93-3.91,1.7-8.06,3-11.71,5.13a20.74,20.74,0,0,0-10.63,17.76c-.46,9.52,4.88,20.61,16.39,21.1,2.06.08,2.08,1.35,2.13,3,.15,4.61.35,9.25.92,13.83.24,2-.6,2.61-2,3.31-4.53,2.25-9.06,4.5-13.55,6.83-2.58,1.34-3.21,3.49-1.55,5.76a55,55,0,0,0,5.77,6.94,12.23,12.23,0,0,0,4.73,2.69,3.34,3.34,0,0,0,3.05-.88c.42-.58-.11-2.2-.69-3a21.41,21.41,0,0,0-3.32-3.27c-.94-.83-1.91-1.63-2.92-2.46a.92.92,0,0,1,0-1.45.44.44,0,0,1,.17-.08c.85-.2,1.72-.29,2.57-.47,8.69-1.76,17.28-3.65,18.78-14.42a.93.93,0,0,1,1.31-.73,59.26,59.26,0,0,1,5.59,2.69c.91.52,2.07,1.7,2,2.56a90.22,90.22,0,0,1-1,13.36c-.78,4.44-.29,5.56,4,7.2A36.47,36.47,0,0,0,94,165.23,1.12,1.12,0,0,0,95.2,164v0a3.38,3.38,0,0,0-.76-2,1.11,1.11,0,0,0-.24-.08c-2.79-.93-5.27-1.75-7.87-2.54-2.33-.7-2.73-1.93-1.8-4.16a87.11,87.11,0,0,0,4.61-12.55c.49-1.92-.12-4.12-.48-6.51a.93.93,0,0,1,1-1.07l2.91.36a.94.94,0,0,1,.78,1.22,4,4,0,0,1-.4,1c-2.16,3.36-2.29,6.93-1.18,10.66,1.22,4.1,2.42,8.21,3.68,12.53a.94.94,0,0,1,0,.5,3.11,3.11,0,0,0,.52,1.77,6.13,6.13,0,0,0,1.22,1.71,5.18,5.18,0,0,0,1,.64c1.94.1,3.87.23,5.78.52a2,2,0,0,0,1.42-.22c.8-.67,2.09-1.56,2-2.26s-1.23-1.76-2.12-2.31A3.48,3.48,0,0,0,103,161c-3.06.61-3.9-1.14-3.76-3.62.24-4,.64-7.95,1.09-11.92a6.5,6.5,0,0,1,.68-1.91.93.93,0,0,1,1.59-.17,4.16,4.16,0,0,1,.65,1.06c2.47,6.59,7.25,11.46,12,16.32,2.89,2.93,6.46,3.42,10.28,2.55a1.81,1.81,0,0,0,.42-.16,1.76,1.76,0,0,0,.2-2.88,1.26,1.26,0,0,0-.39-.22c-1.64-.57-3.43-.69-5.08-1.25a5.42,5.42,0,0,1-2.72-1.78c-2-3.07-3.74-6.35-5.73-9.46a6,6,0,0,1-.57-6A38,38,0,0,0,114.19,133.23Z"/><circle cx="74.09" cy="44.29" r="5.07"/><text class="cls-1" transform="translate(134.3 164.47)">Radio</text><text class="cls-2" transform="translate(393.56 162.32)">Monkey</text></svg>