<svg id="Layer_1" data-name="Layer 1" xmlns="http://www.w3.org/2000/svg" viewBox="0 0 24 24"><defs><style>.cls-1{fill:#fff;}</style></defs><title>radio</title><path class="cls-1" d="M12.25,12.06v6.77a1.61,1.61,0,0,1,0,.31c0,.12-.06.29-.13.32a.48.48,0,0,1-.36-.09l-1.94-1.6c-.77-.63-1.53-1.27-2.3-1.89a.62.62,0,0,0-.39-.14c-.87,0-1.73,0-2.6,0S3.23,15.46,3,14.54a10.12,10.12,0,0,1-.24-2.46A19.34,19.34,0,0,1,3,9.56a2.21,2.21,0,0,1,.36-.78,1,1,0,0,1,.9-.43c.94,0,1.87,0,2.81,0a.85.85,0,0,0,.51-.18c1.37-1.12,2.74-2.26,4.1-3.39a1,1,0,0,1,.16-.12c.22-.13.38,0,.41.2a2.71,2.71,0,0,1,0,.29Z"/><path class="cls-1" d="M18.1,5.41,19,4.5c.32.47.66.89.92,1.36a10.44,10.44,0,0,1,1.2,3.89A16.3,16.3,0,0,1,21,15a9,9,0,0,1-1.68,4.12,2,2,0,0,1-.19.22L19,19.5l-.91-.84a9,9,0,0,0,1.82-5,14,14,0,0,0-.53-5.82,7.13,7.13,0,0,0-.51-1.25C18.64,6.2,18.37,5.84,18.1,5.41Z"/><path class="cls-1" d="M16.14,16.77c1.79-2,1.8-7.43,0-9.43l.94-.81a4.72,4.72,0,0,1,1.05,1.79,11.35,11.35,0,0,1,.54,5,8.38,8.38,0,0,1-.78,3,15.41,15.41,0,0,1-.8,1.32Z"/><path class="cls-1" d="M14.18,9.28l.92-.8c1.48,1.24,1.49,5.69,0,7.15l-.89-.83A4.51,4.51,0,0,0,15,12,4.4,4.4,0,0,0,14.18,9.28Z"/></svg>