<svg id="Layer_1" data-name="Layer 1" xmlns="http://www.w3.org/2000/svg" viewBox="0 0 24 24"><title>radio</title><path d="M12,22.32H4.81a3.07,3.07,0,0,1-3.1-2.61,2.19,2.19,0,0,1,0-.36c0-1.08,0-2.15,0-3.22a1,1,0,0,1,1-1,1,1,0,0,1,1,1c0,1,0,1.95,0,2.93a1.07,1.07,0,0,0,1.21,1.2H19.05A1.07,1.07,0,0,0,20.26,19c0-1,0-2,0-2.95a1,1,0,0,1,1.83-.59,1.24,1.24,0,0,1,.21.62c0,1.08,0,2.16,0,3.24a3,3,0,0,1-2.95,2.95c-1.78,0-3.57,0-5.35,0Z"/><path d="M11,14.67V2.89A1.64,1.64,0,0,1,11,2.35a1,1,0,0,1,1.13-.66,1,1,0,0,1,.85,1c0,.1,0,.21,0,.31q0,5.69,0,11.37v.33l.17-.14,1.09-1.1a1,1,0,1,1,1.46,1.45q-1.48,1.52-3,3a1,1,0,0,1-1.56,0c-1-1-2-2-3-3a1,1,0,1,1,1.46-1.45l1,1.05Z"/></svg>