<svg id="Layer_1" data-name="Layer 1" xmlns="http://www.w3.org/2000/svg" viewBox="0 0 24 24"><title>radio</title><path d="M14.11,14.72,13.47,14a6.51,6.51,0,1,1,1-9.86,6.56,6.56,0,0,1-.33,9.29l.64.64c.68-.41.68-.41,1.21.26l4.36,5.46c.41.53.4.64-.12,1.06-.32.26-.66.51-1,.78a.51.51,0,0,1-.83-.07q-2.34-3-4.7-5.89C13.41,15.25,13.75,15,14.11,14.72ZM15.4,9.28a5.63,5.63,0,1,0-6.26,5A5.64,5.64,0,0,0,15.4,9.28Zm4.18,11.07L15.28,15l-.52.37,4.3,5.4Z"/><path d="M5.31,7.86A4.58,4.58,0,0,1,6.88,5.13c.24-.21.53-.41.8-.11s0,.54-.21.76a3.74,3.74,0,0,0-.59,5.12c.19.27.38.54,0,.78s-.53,0-.72-.26A4.84,4.84,0,0,1,5.31,7.86Z"/></svg>