<svg id="Layer_1" data-name="Layer 1" xmlns="http://www.w3.org/2000/svg" viewBox="0 0 24 24"><defs><style>.cls-1{fill:none;stroke:#000;stroke-miterlimit:10;stroke-width:1.5px;}</style></defs><title>radio</title><path d="M17.31,6.66a1.29,1.29,0,0,0-1.17-.18,5.69,5.69,0,0,1-1.59.2,6.23,6.23,0,0,1-2.28-.57,7.48,7.48,0,0,0-2.82-.68,4.64,4.64,0,0,0-3.07.83.75.75,0,0,0-.22.53V17.84a.73.73,0,0,0,1.46,0V14.7a4.73,4.73,0,0,1,1.83-.3,6.23,6.23,0,0,1,2.28.57,7.48,7.48,0,0,0,2.82.68,5.64,5.64,0,0,0,2.56-.51A1.28,1.28,0,0,0,17.84,14V7.7A1.29,1.29,0,0,0,17.31,6.66Z"/><circle class="cls-1" cx="12" cy="12" r="10.54"/></svg>