<svg id="Layer_1" data-name="Layer 1" xmlns="http://www.w3.org/2000/svg" viewBox="0 0 24 24"><defs><style>.cls-1{fill:#3d3d3d;}.cls-2{fill:none;stroke:#3d3d3d;stroke-miterlimit:10;}</style></defs><title>WEB</title><path class="cls-1" d="M5.58,11.09c0-.23,0-.46.09-.69A6,6,0,0,1,7.75,6.79,5.9,5.9,0,0,1,12,5.35a6.1,6.1,0,0,1,5.5,4.18,2.19,2.19,0,0,1-.69,2.39l-.07.06.69.65.58.55a1.19,1.19,0,1,1-1.67,1.68l-2.18-2.32a.18.18,0,0,0-.23,0,.81.81,0,0,0-.48.89.83.83,0,0,0,.79.72,2.71,2.71,0,0,1,.4,0,1.31,1.31,0,0,1,1,1.1,1.25,1.25,0,0,1-.54,1.31,5.61,5.61,0,0,1-2.39,1A6.13,6.13,0,0,1,5.65,12.4c0-.18-.05-.37-.07-.56Zm7.93.75c-.26-.29-.54-.58-.82-.87a.17.17,0,0,0-.12,0,4.8,4.8,0,0,1-.66,0,1.73,1.73,0,0,1-1.37-1.17A10.26,10.26,0,0,1,10,7.25a.37.37,0,0,1,.44-.44l.84.12a8.42,8.42,0,0,1,1.83.5,1.81,1.81,0,0,1,1,1.93.18.18,0,0,0,.06.19l1.1,1,.91.85a1.41,1.41,0,0,0,.61-1.67A5.37,5.37,0,0,0,6.41,12.32a5.17,5.17,0,0,0,2.81,3.91A5.39,5.39,0,0,0,14.63,16a.58.58,0,0,0,.26-.67.59.59,0,0,0-.57-.45,1.18,1.18,0,0,1-.26,0,1.53,1.53,0,0,1-1.25-1,1.5,1.5,0,0,1,.26-1.58A2.85,2.85,0,0,1,13.51,11.84ZM10.8,7.61c0,.08,0,.12,0,.17a8.76,8.76,0,0,0,.43,1.73,1.05,1.05,0,0,0,1.19.68,1.11,1.11,0,0,0,.93-1,1,1,0,0,0-.64-1.12,8.39,8.39,0,0,0-.85-.27C11.53,7.74,11.17,7.68,10.8,7.61Zm2.61,3L15,12.25c.65.7,1.3,1.39,2,2.08a.41.41,0,0,0,.45.14.41.41,0,0,0,.3-.34.43.43,0,0,0-.16-.41l-3.66-3.45,0,0Z"/><path class="cls-1" d="M8.32,12.73A1.39,1.39,0,1,1,9.7,11.34,1.39,1.39,0,0,1,8.32,12.73Zm.62-1.39a.61.61,0,0,0-.62-.63A.63.63,0,0,0,8.3,12,.62.62,0,0,0,8.94,11.34Z"/><path class="cls-1" d="M10.77,13.23a1.39,1.39,0,1,1-1.38,1.39A1.39,1.39,0,0,1,10.77,13.23Zm.64,1.39a.64.64,0,1,0-.62.64A.64.64,0,0,0,11.41,14.62Z"/><circle class="cls-2" cx="12" cy="12" r="11.08"/></svg>