<svg id="Layer_1" data-name="Layer 1" xmlns="http://www.w3.org/2000/svg" viewBox="0 0 24 24"><defs><style>.cls-1{fill:none;stroke:#3d3d3d;stroke-miterlimit:10;}.cls-2{fill:#3d3d3d;}</style></defs><title>WEB ICON</title><circle class="cls-1" cx="12" cy="12" r="11.08"/><path class="cls-2" d="M15.2,6.58H8.8A2.21,2.21,0,0,0,6.58,8.8v6.4A2.21,2.21,0,0,0,8.8,17.42h6.4a2.21,2.21,0,0,0,2.22-2.22V8.8A2.21,2.21,0,0,0,15.2,6.58Zm1.26,8.62a1.25,1.25,0,0,1-1.26,1.26H8.8A1.25,1.25,0,0,1,7.54,15.2V8.8A1.25,1.25,0,0,1,8.8,7.54h6.4A1.25,1.25,0,0,1,16.46,8.8Z"/><path class="cls-2" d="M12.3,13.54l.93-1.25a.37.37,0,0,0-.3-.6h0a.37.37,0,0,1-.37-.37V9.16H11.44v2.16a.37.37,0,0,1-.37.37h0a.37.37,0,0,0-.3.6l.93,1.25A.39.39,0,0,0,12.3,13.54Z"/><path class="cls-2" d="M8.7,12A3.3,3.3,0,1,1,12,15.3,3.3,3.3,0,0,1,8.7,12Zm5.85,0A2.55,2.55,0,1,0,12,14.55,2.55,2.55,0,0,0,14.55,12Z"/></svg>