<svg id="Layer_1" data-name="Layer 1" xmlns="http://www.w3.org/2000/svg" xmlns:xlink="http://www.w3.org/1999/xlink" viewBox="0 0 24 24"><defs><style>.cls-1{fill:none;}.cls-2{fill:#ff6264;}.cls-3{clip-path:url(#clip-path);}.cls-4{opacity:0.1;}.cls-5{fill:#fff;}</style><clipPath id="clip-path"><circle class="cls-1" cx="12" cy="12" r="11.41"/></clipPath></defs><title>WEB ICON</title><circle class="cls-2" cx="12" cy="12" r="11.41"/><g class="cls-3"><path class="cls-4" d="M17.79,8.21l6.42,10.2s-7,5.31-8,5.27a6.12,6.12,0,0,0-2.69,1l-8-11.34L10,13.28l1.12.94.93,1.1,2.54,0,2.57-.08Z"/></g><path class="cls-5" d="M7.92,12a.58.58,0,1,0-.58.58A.58.58,0,0,0,7.92,12Zm9.92,3.5v-7a.58.58,0,0,0-.59-.58H12a1.74,1.74,0,0,0-1.74,1.75v.58H8.87a2.33,2.33,0,1,0,0,3.5h1.39v.58A1.74,1.74,0,0,0,12,16.08h5.25A.58.58,0,0,0,17.84,15.5ZM6.17,12a1.18,1.18,0,0,1,1.18-1.16,1.2,1.2,0,0,1,.85.38.57.57,0,0,0,.43.2h1.63v1.16H8.63a.57.57,0,0,0-.43.2,1.17,1.17,0,0,1-2-.78ZM12,14.92a.59.59,0,0,1-.58-.59V9.67A.59.59,0,0,1,12,9.08h.59v5.84Zm1.75,0V9.08h2.92v5.84Z"/></svg>