<svg id="Layer_1" data-name="Layer 1" xmlns="http://www.w3.org/2000/svg" xmlns:xlink="http://www.w3.org/1999/xlink" viewBox="0 0 24 24"><defs><style>.cls-1{fill:none;}.cls-2{fill:#9366f7;}.cls-3{clip-path:url(#clip-path);}.cls-4{opacity:0.1;}.cls-5{fill:#fff;stroke:#fff;stroke-miterlimit:10;stroke-width:0.25px;}</style><clipPath id="clip-path"><circle class="cls-1" cx="12" cy="12" r="10.68"/></clipPath></defs><title>WEB</title><circle class="cls-2" cx="12" cy="12" r="10.68"/><g class="cls-3"><path class="cls-4" d="M16.7,11.46l6.09,7S22,21.14,21,21.1s-6.55,3-6.55,3L7.11,15.87h4.31l1.74-.55L15,13.58l.58-.52.77-.57Z"/></g><path class="cls-5" d="M10.71,12c0-1.09,0-2.18,0-3.27a1,1,0,0,1,1.75-.83c1.3,1.09,2.62,2.17,3.92,3.27a1,1,0,0,1,0,1.73l-3.92,3.27a1,1,0,0,1-1.14.26,1.09,1.09,0,0,1-.63-1.11C10.71,14.16,10.71,13.06,10.71,12Zm.71.06c0,1.07,0,2.14,0,3.21a1.51,1.51,0,0,0,.16.48,1.68,1.68,0,0,0,.41-.17c1.31-1.06,2.6-2.15,3.91-3.21.32-.26.3-.45,0-.7-1.28-1-2.56-2.12-3.85-3.17a1.78,1.78,0,0,0-.47-.19,1.77,1.77,0,0,0-.15.48C11.41,9.83,11.42,10.92,11.42,12Z"/><path class="cls-5" d="M7.11,12c0-1.07,0-2.14,0-3.21,0-.85.38-1.21,1.25-1.22,1.14,0,1.56.29,1.57,1.21q0,3.24,0,6.48c0,.93-.45,1.26-1.56,1.24-.88,0-1.26-.4-1.26-1.29C7.1,14.1,7.11,13,7.11,12Zm.71,0c0,1.07,0,2.14,0,3.2,0,.51.26.59.67.59s.74-.05.74-.59q0-3.18,0-6.35c0-.56-.34-.57-.75-.57s-.68.07-.67.58C7.84,9.86,7.82,10.91,7.82,12Z"/></svg>