<svg id="Capa_1" data-name="Capa 1" xmlns="http://www.w3.org/2000/svg" viewBox="0 0 60 60"><defs><style>.cls-1{fill:#43af50;}.cls-2{fill:#fff915;}.cls-3{fill:#39acc6;}.cls-4{fill:#fff;}</style></defs><title>flag</title><rect class="cls-1" y="0.14" width="60" height="59.86"/><polygon class="cls-2" points="3.35 30.16 30.58 12.95 58.17 29.87 30.94 47.02 3.35 30.16"/><path class="cls-3" d="M42.39,29.89a11.78,11.78,0,1,1-23.55,0,11.6,11.6,0,0,1,.48-3.3,11.77,11.77,0,0,1,23.07,3.3Z"/><path class="cls-4" d="M42.15,32.29a11.85,11.85,0,0,1-.86,2.58l0,0A23.47,23.47,0,0,0,30.51,27.9c-4.11-1.39-10.29-1.33-11.19-1.31a11.76,11.76,0,0,1,1-2.51s4-.44,10.73,1.33A21.54,21.54,0,0,1,42.15,32.29Z"/><path class="cls-1" d="M21.24,24.73a.73.73,0,0,0-.69.83.7.7,0,0,0,.71.77.73.73,0,0,0,.7-.84A.72.72,0,0,0,21.24,24.73Zm0,1.44c-.32,0-.5-.29-.51-.62a.55.55,0,0,1,.48-.65c.33,0,.5.31.5.61S21.58,26.16,21.27,26.17Z"/><path class="cls-1" d="M23.12,25.87a.38.38,0,0,0-.22-.31h0a.4.4,0,0,0,.29-.39.39.39,0,0,0-.12-.3.68.68,0,0,0-.44-.13,2.21,2.21,0,0,0-.39,0l0,1.53h.2v-.67h.19c.18,0,.26.09.31.31a3.27,3.27,0,0,0,.09.37h.21A2.2,2.2,0,0,1,23.12,25.87Zm-.48-.39h-.21v-.56a.75.75,0,0,1,.2,0c.2,0,.35.09.35.29A.31.31,0,0,1,22.64,25.48Z"/><path class="cls-1" d="M24.56,25a.88.88,0,0,0-.61-.22,2.94,2.94,0,0,0-.43,0l-.08,1.53.36,0a.92.92,0,0,0,.7-.19.77.77,0,0,0,.25-.59A.71.71,0,0,0,24.56,25Zm-.71,1.2-.2,0,.06-1.22a.88.88,0,0,1,.24,0,.56.56,0,0,1,.6.62A.61.61,0,0,1,23.85,26.19Z"/><path class="cls-1" d="M25.92,25.1l0-.17-.84-.08L25,26.39l.86.09,0-.17-.67-.06,0-.56.6,0v-.16l-.59,0,0-.49Z"/><path class="cls-1" d="M27.47,25.13l-.38.7c-.1.19-.18.35-.24.49h0c0-.16,0-.33-.07-.53L26.61,25l-.26,0L26,26.49l.19,0,.13-.66c0-.22.1-.48.13-.67a5.29,5.29,0,0,0,.1.62l.14.77.15,0,.38-.71c.11-.2.2-.38.28-.55h0a6.62,6.62,0,0,0-.08.66l-.05.69.19,0,.12-1.54Z"/><path class="cls-1" d="M30.16,26.42l-.17,0a1,1,0,0,1-.26.39l-.26-.5h0c.27-.06.39-.16.43-.32a.32.32,0,0,0-.25-.4.37.37,0,0,0-.47.27.47.47,0,0,0,0,.35h0a.52.52,0,0,0-.41.37.45.45,0,0,0,.37.54.74.74,0,0,0,.48-.07,1.8,1.8,0,0,1,.1.18l.24.06-.19-.33A1.07,1.07,0,0,0,30.16,26.42Zm-.8-.58a.2.2,0,0,1,.24-.17.18.18,0,0,1,.12.24c0,.12-.14.18-.32.23A.44.44,0,0,1,29.36,25.84Zm-.11,1.09a.31.31,0,0,1-.24-.37.35.35,0,0,1,.27-.26c.12.23.24.46.31.57A.4.4,0,0,1,29.25,26.93Z"/><path class="cls-1" d="M32.3,26.48a.69.69,0,0,0-.37-.26l-.37-.1-.49,1.46.19.07.19-.59.16.06a.66.66,0,0,0,.5,0,.48.48,0,0,0,.21-.28A.39.39,0,0,0,32.3,26.48Zm-.17.3a.33.33,0,0,1-.47.19l-.16-.07.2-.57a.62.62,0,0,1,.18.05C32.09,26.44,32.2,26.58,32.13,26.78Z"/><path class="cls-1" d="M33.5,26.92a.67.67,0,0,0-.37-.28l-.37-.1L32.21,28l.19.07.24-.63.18.07c.16.07.21.17.18.39a3.34,3.34,0,0,0,0,.38l.2.08a3.73,3.73,0,0,1,0-.44c0-.17,0-.3-.11-.37h0a.4.4,0,0,0,.41-.27A.39.39,0,0,0,33.5,26.92Zm-.18.28a.31.31,0,0,1-.43.14l-.19-.07.19-.53a.78.78,0,0,1,.19.06C33.28,26.87,33.39,27,33.32,27.2Z"/><path class="cls-1" d="M34.57,27.22a.75.75,0,0,0-1,.45.71.71,0,1,0,1.3.55A.7.7,0,0,0,34.57,27.22Zm.12.93c-.14.32-.43.51-.71.38a.55.55,0,0,1-.21-.77c.14-.31.42-.53.73-.39A.57.57,0,0,1,34.69,28.15Z"/><path class="cls-1" d="M36.18,28a.77.77,0,0,0-1.12.3.74.74,0,0,0-.09.6.78.78,0,0,0,.41.47,1.29,1.29,0,0,0,.45.15l.36-.65-.44-.25-.08.14L36,29l-.23.41a.63.63,0,0,1-.25-.09.57.57,0,0,1-.22-.84.58.58,0,0,1,.84-.25.82.82,0,0,1,.27.23l.12-.12A.9.9,0,0,0,36.18,28Z"/><path class="cls-1" d="M37.46,29.34a.4.4,0,0,0,.07-.31.72.72,0,0,0-.31-.36c-.12-.06-.24-.14-.34-.18L36,29.77l.17.11.37-.56.15.11c.15.1.17.21.1.42a1.75,1.75,0,0,0-.12.36l.17.11A3.18,3.18,0,0,1,37,29.9a.39.39,0,0,0,0-.38h0A.4.4,0,0,0,37.46,29.34Zm-.63,0-.17-.11.31-.47.18.09c.17.12.24.28.13.44A.29.29,0,0,1,36.83,29.3Z"/><path class="cls-1" d="M38.54,29.86l.1-.14-.66-.5L37,30.45l.69.52.1-.13-.53-.4.34-.45.47.37.11-.14-.49-.36.31-.39Z"/><path class="cls-1" d="M39.29,30.22a.46.46,0,0,0-.66,0,.5.5,0,0,0,0,.6c.11.2.12.32,0,.43s-.25.12-.42,0a.72.72,0,0,1-.2-.31l-.15.1a.75.75,0,0,0,.24.32c.28.25.55.2.7,0s.13-.35,0-.59-.13-.32,0-.44a.27.27,0,0,1,.38,0,.77.77,0,0,1,.17.25l.15-.08A.7.7,0,0,0,39.29,30.22Z"/><path class="cls-1" d="M40.17,31a.45.45,0,0,0-.66,0,.49.49,0,0,0,0,.6c.1.21.11.32,0,.43s-.26.11-.42,0a.6.6,0,0,1-.19-.32l-.16.09a.84.84,0,0,0,.23.35.47.47,0,0,0,.7,0c.15-.16.15-.34,0-.6s-.12-.32,0-.43a.25.25,0,0,1,.37,0,.68.68,0,0,1,.17.25l.15-.08A.72.72,0,0,0,40.17,31Z"/><path class="cls-1" d="M41.14,31.93a.74.74,0,0,0-1.08.08A.71.71,0,0,0,40,33.06.72.72,0,0,0,41.1,33,.7.7,0,0,0,41.14,31.93Zm-.2.91c-.25.25-.57.34-.81.11a.55.55,0,0,1,.09-.79c.23-.24.57-.35.8-.11A.54.54,0,0,1,40.94,32.84Z"/><path class="cls-4" d="M37.93,34.27a.14.14,0,0,1-.14.14.15.15,0,0,1-.15-.14.15.15,0,0,1,.15-.15A.15.15,0,0,1,37.93,34.27Z"/><path class="cls-4" d="M36.88,34.34a.14.14,0,0,1-.14.14.15.15,0,0,1-.15-.14.15.15,0,0,1,.15-.15A.15.15,0,0,1,36.88,34.34Z"/><path class="cls-4" d="M36.78,35.08a.13.13,0,0,1-.26,0,.13.13,0,1,1,.26,0Z"/><path class="cls-4" d="M36.58,35.52a.12.12,0,1,1-.12-.12A.12.12,0,0,1,36.58,35.52Z"/><path class="cls-4" d="M36.1,35.76a.12.12,0,0,1-.12.12.12.12,0,0,1-.11-.12.11.11,0,0,1,.11-.12A.12.12,0,0,1,36.1,35.76Z"/><path class="cls-4" d="M35.44,35.93a.12.12,0,0,1-.12.12.12.12,0,0,1,0-.24A.12.12,0,0,1,35.44,35.93Z"/><path class="cls-4" d="M36,36.75a.15.15,0,0,1-.14.15.15.15,0,0,1-.15-.15.14.14,0,0,1,.15-.14A.14.14,0,0,1,36,36.75Z"/><path class="cls-4" d="M36,37.44a.14.14,0,0,1-.14.14.15.15,0,1,1,0-.29A.15.15,0,0,1,36,37.44Z"/><path class="cls-4" d="M33.53,36a.09.09,0,0,1-.09.09.1.1,0,0,1-.1-.09.1.1,0,0,1,.1-.1A.09.09,0,0,1,33.53,36Z"/><path class="cls-4" d="M32.83,36a.09.09,0,0,1-.1.09.09.09,0,0,1-.09-.09.09.09,0,0,1,.09-.1A.09.09,0,0,1,32.83,36Z"/><path class="cls-4" d="M33.07,36.8a.1.1,0,0,1-.09.1.1.1,0,0,1-.1-.1.09.09,0,0,1,.1-.1A.09.09,0,0,1,33.07,36.8Z"/><path class="cls-4" d="M30.26,38a.15.15,0,0,1-.15.15A.15.15,0,0,1,30,38a.14.14,0,0,1,.14-.14A.15.15,0,0,1,30.26,38Z"/><path class="cls-4" d="M30.11,34.55a.14.14,0,1,1-.28,0,.14.14,0,0,1,.28,0Z"/><path class="cls-4" d="M31,33.47a.15.15,0,0,1-.15.15.15.15,0,0,1-.14-.15.14.14,0,0,1,.14-.14A.15.15,0,0,1,31,33.47Z"/><path class="cls-4" d="M29.93,32.47a.14.14,0,0,1-.28,0,.14.14,0,1,1,.28,0Z"/><path class="cls-4" d="M28.89,33.19a.14.14,0,0,1-.15.14.14.14,0,0,1-.14-.14.15.15,0,0,1,.14-.15A.15.15,0,0,1,28.89,33.19Z"/><circle class="cls-4" cx="29.32" cy="33.69" r="0.09"/><path class="cls-4" d="M32.7,29.8a.14.14,0,1,1-.14-.14A.14.14,0,0,1,32.7,29.8Z"/><path class="cls-4" d="M33.82,25.62a.15.15,0,0,1-.14.15.15.15,0,0,1-.15-.15.15.15,0,0,1,.15-.14A.14.14,0,0,1,33.82,25.62Z"/><path class="cls-4" d="M26.48,30.63a.15.15,0,0,1-.15.14.14.14,0,0,1-.14-.14.15.15,0,0,1,.14-.15A.15.15,0,0,1,26.48,30.63Z"/><path class="cls-4" d="M25.25,35.92a.15.15,0,0,1-.14.15.15.15,0,0,1-.15-.15.15.15,0,0,1,.15-.14A.14.14,0,0,1,25.25,35.92Z"/><path class="cls-4" d="M23.23,35.13a.1.1,0,0,1-.1.11.11.11,0,0,1,0-.22A.1.1,0,0,1,23.23,35.13Z"/><path class="cls-4" d="M23.31,34.23a.11.11,0,1,1-.11-.11A.11.11,0,0,1,23.31,34.23Z"/><path class="cls-4" d="M22.74,33.46a.1.1,0,0,1-.1.1.11.11,0,0,1-.1-.1.1.1,0,0,1,.1-.1A.09.09,0,0,1,22.74,33.46Z"/><path class="cls-4" d="M21.58,33.58a.15.15,0,0,1-.15.15.15.15,0,0,1-.14-.15.14.14,0,0,1,.14-.14A.14.14,0,0,1,21.58,33.58Z"/><path class="cls-4" d="M20.46,34.1a.09.09,0,0,1-.09.09.09.09,0,0,1-.08-.09.09.09,0,0,1,.08-.08A.09.09,0,0,1,20.46,34.1Z"/><path class="cls-4" d="M20.57,28.18a.14.14,0,0,1-.14.14.14.14,0,1,1,0-.28A.14.14,0,0,1,20.57,28.18Z"/></svg>