<svg id="Capa_1" data-name="Capa 1" xmlns="http://www.w3.org/2000/svg" viewBox="0 0 60 60"><defs><style>.cls-1{fill:#75d4f9;}.cls-2{fill:#fff;}.cls-3{fill:#efe94d;}.cls-4{fill:#513b2f;}.cls-5{fill:#84533a;}</style></defs><title>flag</title><rect class="cls-1" y="-0.09" width="59.97" height="60.19"/><rect class="cls-2" y="19.7" width="60" height="20.25"/><path class="cls-3" d="M33.46,30.74a1.46,1.46,0,0,1-.05.2l5.32,2.46-5.45-1.95-.05,0c0,.06,0,.12-.07.17L37.85,35l-5-2.94a1.63,1.63,0,0,0-.11.17l3.9,4.26L32.4,32.56s-.06,0-.08.09l3,4.91L31.9,33l-.18.1,2,5.43-2.45-5.22-.16,0h0l.95,5.78L30.61,33.5v-.06l-.2,0-.26,5.86-.26-5.78v-.06h-.12l-1.33,5.69.81-5.73v0L29,33.37l-2.46,5.29,2-5.44,0,0-.14-.07L25,37.86l3-5v0a1.77,1.77,0,0,1-.17-.12l-4.29,3.93,3.9-4.27h0a.87.87,0,0,1-.09-.11L22.4,35.35,27,31.86l-.1-.18-5.45,2L26.7,31.2a.11.11,0,0,1,0-.08L21,32.06l5.58-1.43a1.92,1.92,0,0,1,0-.22l-5.77-.26,5.74-.26a.71.71,0,0,1,0-.15l-5.63-1.3,5.69.79a1.72,1.72,0,0,1,.07-.21l-5.24-2.43,5.41,1.94a.54.54,0,0,1,0-.11L22.1,25l5,2.95a2.2,2.2,0,0,1,.14-.18L23.3,23.5l4.26,3.9a1.14,1.14,0,0,0,.11-.11L24.6,22.38,28.09,27l.19-.12-2-5.45,2.46,5.23.18-.06L28,20.9l1.43,5.57.22,0,.26-5.77.26,5.75a.44.44,0,0,1,.16,0l1.29-5.63-.8,5.69a1.42,1.42,0,0,1,.22.07l2.43-5.24-1.95,5.41.12.07,3.41-4.75-2.95,5,0,0a1,1,0,0,0,.18.13l4.32-3.95-3.92,4.28,0,0,.1.09,5-3.09-4.62,3.48,0,0,.1.17h0l5.51-2L33.4,28.72l-.07,0s0,.08.05.12l5.76-.94-5.62,1.44h0a1.49,1.49,0,0,1,0,.21l5.84.26-5.78.26h0a.57.57,0,0,1,0,.13l5.71,1.32-5.75-.8Z"/><path class="cls-4" d="M33.46,30.74l-.05.2h0l5.32,2.46h0l-5.45-2h0l0,0h0l-.07.16h0L37.85,35v0l-5-2.94h0l-.12.16h0l3.91,4.26,0,0-4.27-3.89h0l-.08.1v0l3.05,4.91,0,0L31.88,33h0l-.17.11v0l2,5.42,0,0-2.45-5.22,0,0-.15,0v0h0l.95,5.78h0l-1.46-5.67,0,0-.21,0,0,0-.25,5.85h-.06l-.25-5.84,0,0h-.14l0,0-1.33,5.7H28.4l.82-5.73h0v0l0,0-.21,0h0l-2.47,5.29h0l2-5.45h0v0l-.14-.07h0L25,37.87l0,0,3-5h0v0l-.17-.12h0l-4.29,3.93,0,0,3.9-4.27h0l-.09-.1h0l-5,3.08v0L27,31.85h0l-.1-.17h0l-5.45,2v0l5.24-2.46v0l0-.09h0L21,32.07v0l5.58-1.43h0l0-.22h0l-5.77-.26v0l5.74-.26,0,0,0-.16v0l-5.62-1.29v0l5.68.79h0a1.72,1.72,0,0,1,.07-.21v0L21.36,26.6l0,0,5.4,1.94,0,0,.06-.13v0L22.09,25l0,0,5,2.95h0l.14-.18v0l-3.93-4.3,0,0,4.27,3.9h0l.1-.1v0l-3.07-4.92.05,0L28.11,27h0l.2-.12v0l-2-5.45.05,0,2.45,5.22h0l.19-.06,0,0L28,20.91l.06,0,1.43,5.57,0,0,.22,0,0,0,.26-5.76h.06l.26,5.75,0,0h.16l0,0,1.29-5.63h.06l-.8,5.7,0,0,.22.06h0l2.43-5.23,0,0-1.95,5.41,0,0,.12.07h0L35,22.05l0,0-3,5h0l0,0v0l.17.13h0l4.32-4,0,0-4,4.31v0l.1.1h0l5-3.09,0,0L33,28.11v0l.11.17h0l5.52-2v0l-5.31,2.49v0l0,.13h0l5.75-.94v0l-5.62,1.44h0l0,.21h0l5.84.26v0l-5.82.26h0a.28.28,0,0,1,0,.13h0l5.71,1.33h0l-5.74-.81h0Zm0,0h0l5.75.8h0l-5.71-1.32h0V30.1h0l5.82-.27v0l-5.84-.26h0l0-.21h0l5.61-1.44v0l-5.76.95h0l0-.13h0l5.31-2.49v0l-5.51,2h0l-.1-.17v0h0l4.66-3.52,0,0-5,3.09h0l0,0-.09-.09h0l0,0,3.95-4.32,0,0-4.32,3.95,0,0h0l-.18-.14,0,0,0,0,0,0h0l3-5,0,0-3.41,4.76,0,0h0l-.11-.07h0v0l2-5.41,0,0-2.43,5.24v0h0l-.21-.06h0v0l.8-5.7.06,0-1.3,5.62v0h-.2v0l-.26-5.76h.06l-.26,5.77v0h0l-.22,0h0v0L28,20.91H28L29,26.58v0h0l-.19.06h0v0l-2.45-5.23.05,0,2,5.45v0h0L28.1,27h0l0,0-3.48-4.61.05,0,3.06,4.92v0h0l-.11.11h0l-4.26-3.91,0,0,3.93,4.29v0L27.1,28v0h0l-5-2.95,0,0,4.73,3.4h0v0l-.05.11,0,0h0l-5.4-1.95v0L26.62,29h0v0l-.07.2v0h0l-5.69-.79v0l5.62,1.3h0v.15h0l-5.74.26v0l5.77.27h0l0,.22h0L21,32.07v0l5.72-.94h0l0,.07h0l-5.24,2.46v0l5.45-2h0l.11.17h0L22.4,35.36v0l4.95-3.08h0l.09.11h0l-3.9,4.27,0,0,4.29-3.93h0l.16.12h0v0h0l-2.95,5,0,0,3.41-4.74h0l.14.08h0v0h0l-2,5.45h0L29,33.36v0h0l.22,0h0v0l0,0h0l-.81,5.74H28.4l1.33-5.7v0h.16v0l.26,5.83h-.06l.26-5.85v0h0l.19,0h0v0l1.45,5.67h0l-1-5.78h0l.15,0h0v0l2.45,5.21,0,0-2-5.43h0l.18-.11h0v0l3.47,4.6,0,0-3-4.91h0l.08-.09h0l4.27,3.89,0,0-3.9-4.26h0l.12-.16h0l5,2.93v0l-4.69-3.38h0l.07-.17h0l.05,0h0l5.45,2h0L33.4,30.94h0Z"/><path class="cls-5" d="M30.58,28.92a1.32,1.32,0,0,1,1.87,0h0a2,2,0,0,0-.92-.36,1.66,1.66,0,0,0-.93.32Z"/><path class="cls-5" d="M30.85,29a.88.88,0,0,1,1.29,0h0l0,0A1,1,0,0,1,30.85,29Zm0,0A1.14,1.14,0,0,0,32.1,29v0A.91.91,0,0,0,30.85,29Z"/><path class="cls-5" d="M31.72,29a.26.26,0,0,1-.26.26.26.26,0,0,1-.25-.26.25.25,0,0,1,.25-.25A.26.26,0,0,1,31.72,29Z"/><path class="cls-5" d="M30.7,29.18a.94.94,0,0,0,.74.21c.26,0,.58,0,.75-.19-.15.24-.49.24-.75.27A1,1,0,0,1,30.7,29.18Z"/><path class="cls-5" d="M29.62,28.92a1.69,1.69,0,0,0-.94-.32,2,2,0,0,0-.92.36h0a1.3,1.3,0,0,1,1.86,0Z"/><path class="cls-5" d="M29.35,29a.9.9,0,0,0-1.24,0v0A1.12,1.12,0,0,0,29.35,29Zm0,0a1,1,0,0,1-1.28,0l0,0h0A.87.87,0,0,1,29.35,29Z"/><path class="cls-5" d="M28.48,29a.26.26,0,0,0,.26.26A.26.26,0,0,0,29,29a.25.25,0,0,0-.25-.25A.26.26,0,0,0,28.48,29Z"/><path class="cls-5" d="M29.5,29.18a1,1,0,0,1-.74.29c-.26,0-.6,0-.75-.27.17.22.5.18.75.19A.93.93,0,0,0,29.5,29.18Z"/><path class="cls-5" d="M32.48,28.64a1.43,1.43,0,0,0-1.81-.35,1,1,0,0,0-.39.87c0,.32,0,.72.34.9h0a1,1,0,0,1-.42-.91,1,1,0,0,1,.44-.91,1.4,1.4,0,0,1,1.85.38Z"/><path class="cls-5" d="M29.28,30.2c-.1.21.06.38.25.32s.39.11.58.05a.73.73,0,0,0,.26-.11c.14,0,.22.08.31.07s.36-.19.2-.33h0c.21.12,0,.48-.22.42s-.31,0-.56,0-.37-.2-.55,0-.43-.22-.27-.38Z"/><path class="cls-5" d="M31,31.33a.69.69,0,0,0-.86-.2.71.71,0,0,0-.86.19.74.74,0,0,1,.38-.29,1.22,1.22,0,0,1,.47,0,.82.82,0,0,1,.49,0A1.23,1.23,0,0,1,31,31.33Z"/><path class="cls-5" d="M29.47,31.38a2,2,0,0,1,.64,0,1.35,1.35,0,0,1,.61,0,1.66,1.66,0,0,0-.32,0c-.11,0-.16.06-.32.09A2,2,0,0,0,29.47,31.38Z"/><path class="cls-5" d="M30.91,31.43a2,2,0,0,0-.41.22.5.5,0,0,1-.41.22c-.38,0-.52-.39-.83-.43.33,0,.49.42.82.35a.45.45,0,0,0,.4-.17A1.66,1.66,0,0,1,30.91,31.43Z"/><path class="cls-5" d="M29.53,32.32a.66.66,0,0,1,.58-.4.58.58,0,0,1,.52.45A.61.61,0,0,0,29.53,32.32Z"/><path class="cls-5" d="M29.56,30.08a2.43,2.43,0,0,0,.33-1,.78.78,0,0,0-.36-.88,1.62,1.62,0,0,0-1.87.38h0a1.47,1.47,0,0,1,1.9-.42,1,1,0,0,1,.41.92,2,2,0,0,1-.4,1Z"/></svg>