<svg id="Capa_1" data-name="Capa 1" xmlns="http://www.w3.org/2000/svg" viewBox="0 0 60 60"><defs><style>.cls-1{fill:#fff;}.cls-2{fill:#fcb745;}.cls-2,.cls-3{stroke:#000;stroke-width:0.13px;}.cls-3{fill:#008248;}</style></defs><title>flag</title><rect class="cls-1" y="-0.55" width="60" height="60.55"/><path class="cls-2" d="M21.86,18.26c-.37.64.24.9-.28,1.66-.76,1.09.12,2-1.31,2.77-1,.55-1.16.25-1.45,0s-1-.62-2.65.09c-.7.3-.77.3-1,.08s-.39-.06-.92.21c-.92.47-.38,1.18-1.49,1.47a2.41,2.41,0,0,1-2.28-.29c-.87-.44-1-.35-1.21-.06s-.2.58.28.94.72.59.52,1.12-.26.73.11,1c.74.47,0,1,.72,2.11a3,3,0,0,1,.48,1.59c0,.58.16.93.69,1,.87.18.08.58,1.48,1a5.79,5.79,0,0,1,1.41.62,4.61,4.61,0,0,0,2.39.24c.82-.13,2.17-.45,2.52.35a6.63,6.63,0,0,0,1.25,1.89c.31.46.88.07,1.22-1,.25-.74.53-1.81,1.88-1.81,3.32,0,4.2.15,5.62-.89.8-.59,1.8-1.47,2.47-.89.13.12.23-.34.68-.56.12,0,0-.27.12-.52.4-.84-.14-1.07.2-1.53.9-1.19,1.38-1.14,2.1-1.11a1.78,1.78,0,0,1,1.51.65c.5.51.72.65,1.37.13s2.37-.68,2.6,0c.07.2.53.1.49-.35a1.27,1.27,0,0,0-.74-1.1c-.55-.32-.13-.58-.73-1s.13-.55-1-1.53-.41-2.7.26-3.41a1.18,1.18,0,0,1,1.05-.26,1,1,0,0,0,1.22-.46c.44-.55.83-1.25,1.41-1.43.84-.26,1-.71,1.65-.8,1.12-.14,1.36-1.17,2.23-1.44,1.26-.4.86-1.34,2.29-1.78s1.36-1.19,1.82-1.5a5.29,5.29,0,0,0-2.37,1c-.68.57-1.28.29-2,.86a2.33,2.33,0,0,1-2.1.7c-.74-.2-1-.34-1.21.3-.62,1.73-1.73,1-2.26,1.54-.82.81-1.52.24-2.12.67-.88.62-2.59-.18-3.36.52-1.29,1.16-1.61-.19-3,.61a3.24,3.24,0,0,1-2.94.13c-.77-.3-3.33-.21-4.26-.55C23.26,18.51,22.34,19,21.86,18.26Z"/><path class="cls-3" d="M38.07,46.33c-5.89-2.75-11.45-3.58-14.3-7.29,2.69,4,8.75,5,14.4,7.83C38.3,46.93,38.26,46.44,38.07,46.33Z"/><path class="cls-3" d="M25.64,41c-2-1.49-2.58-.47-3.48-.39C23.81,41.71,24.16,41.61,25.64,41Z"/><path class="cls-3" d="M25.58,40.87c-1.75-1.78-.82-2.5-.86-3.4C26.06,39,26,39.31,25.58,40.87Z"/><path class="cls-3" d="M24,39.37c-.45-2.45-1.57-2.11-2.29-2.66C22.19,38.66,22.51,38.83,24,39.37Z"/><path class="cls-3" d="M27.32,42c-1.74-1.78-.81-2.5-.85-3.4C27.81,40.07,27.76,40.43,27.32,42Z"/><path class="cls-3" d="M27.36,42c-1.87,1.65-2.53.69-3.44.68C25.47,41.46,25.83,41.52,27.36,42Z"/><path class="cls-3" d="M29.33,43c-2-1.55-1.13-2.37-1.28-3.26C29.57,41,29.57,41.38,29.33,43Z"/><path class="cls-3" d="M29.58,43.13c-1.69,1.83-2.45.94-3.36,1C27.64,42.74,28,42.77,29.58,43.13Z"/><path class="cls-3" d="M31.62,43.92c-2.09-1.37-1.33-2.26-1.56-3.14C31.69,42,31.72,42.31,31.62,43.92Z"/><path class="cls-3" d="M31.78,44.09c-1.69,1.84-2.45.95-3.35,1C29.84,43.71,30.2,43.74,31.78,44.09Z"/><path class="cls-3" d="M33.79,44.67c-2.09-1.37-1.33-2.26-1.56-3.14C33.86,42.7,33.89,43.06,33.79,44.67Z"/><path class="cls-3" d="M34,44.9c-1.51,2-2.35,1.17-3.24,1.34C32,44.7,32.38,44.69,34,44.9Z"/><path class="cls-3" d="M21.93,46.33c5.89-2.75,11.45-3.58,14.3-7.29-2.69,4-8.75,5-14.4,7.83C21.7,46.93,21.74,46.44,21.93,46.33Z"/><path class="cls-3" d="M34.36,41c2-1.49,2.58-.47,3.48-.39C36.19,41.71,35.84,41.61,34.36,41Z"/><path class="cls-3" d="M34.42,40.87c1.75-1.78.82-2.5.86-3.4C33.94,39,34,39.31,34.42,40.87Z"/><path class="cls-3" d="M36,39.37c.45-2.45,1.57-2.11,2.29-2.66C37.81,38.66,37.49,38.83,36,39.37Z"/><path class="cls-3" d="M32.68,42c1.74-1.78.81-2.5.85-3.4C32.19,40.07,32.24,40.43,32.68,42Z"/><path class="cls-3" d="M32.64,42c1.87,1.65,2.53.69,3.44.68C34.53,41.46,34.17,41.52,32.64,42Z"/><path class="cls-3" d="M30.67,43c2-1.55,1.13-2.37,1.28-3.26C30.43,41,30.43,41.38,30.67,43Z"/><path class="cls-3" d="M30.42,43.13c1.69,1.83,2.45.94,3.36,1C32.36,42.74,32,42.77,30.42,43.13Z"/><path class="cls-3" d="M28.38,43.92c2.09-1.37,1.33-2.26,1.56-3.14C28.31,42,28.28,42.31,28.38,43.92Z"/><path class="cls-3" d="M28.22,44.09c1.69,1.84,2.45.95,3.35,1C30.16,43.71,29.8,43.74,28.22,44.09Z"/><path class="cls-3" d="M26.21,44.67c2.09-1.37,1.33-2.26,1.56-3.14C26.14,42.7,26.11,43.06,26.21,44.67Z"/><path class="cls-3" d="M26,44.9c1.51,2,2.35,1.17,3.24,1.34C28,44.7,27.62,44.69,26,44.9Z"/></svg>