<svg id="Capa_1" data-name="Capa 1" xmlns="http://www.w3.org/2000/svg" viewBox="0 0 60 60"><defs><style>.cls-1{fill:#ed3424;}.cls-2{fill:#00b084;}.cls-3,.cls-4{fill:#fff;}.cls-3{stroke:#000;}.cls-3,.cls-5{stroke-width:0.25px;}.cls-5{fill:none;stroke:#ed3424;}</style></defs><title>flag</title><rect class="cls-1" x="14.08" width="45.92" height="40.01"/><rect class="cls-2" x="13.18" y="40.01" width="46.82" height="19.99"/><rect class="cls-3" x="-0.06" width="13.32" height="60"/><rect class="cls-4" x="13.26" width="0.83" height="60"/><polygon class="cls-1" points="3.15 10.48 3.15 11.22 3.47 11.22 3.47 12.06 3.84 12.06 3.84 12.92 3.47 12.92 3.47 13.76 3.15 13.76 3.15 14.5 2.65 14.5 2.65 13.76 2.33 13.76 2.33 12.92 1.93 12.92 1.93 12.06 2.33 12.06 2.33 11.22 2.65 11.22 2.65 10.48 3.15 10.48"/><polygon class="cls-1" points="3.15 49.52 3.15 48.77 3.47 48.77 3.47 47.93 3.84 47.93 3.84 47.08 3.47 47.08 3.47 46.23 3.15 46.23 3.15 45.49 2.65 45.49 2.65 46.23 2.33 46.23 2.33 47.08 1.93 47.08 1.93 47.93 2.33 47.93 2.33 48.77 2.65 48.77 2.65 49.52 3.15 49.52"/><polygon class="cls-1" points="6.89 7.33 6.89 8.45 7.39 8.45 7.39 9.65 7.96 9.65 7.96 10.54 8.6 10.54 8.6 11.66 9.06 11.66 9.06 10.54 9.7 10.54 9.7 9.65 10.27 9.65 10.27 8.45 10.77 8.45 10.77 7.33 11.27 7.33 11.27 5.81 10.77 5.81 10.77 4.52 10.27 4.52 10.27 2.98 9.7 2.98 9.7 2.03 7.96 2.03 7.96 2.98 7.39 2.98 7.39 4.52 6.89 4.52 6.89 5.81 6.31 5.81 6.31 4.52 5.81 4.52 5.81 2.98 5.24 2.98 5.24 2.03 3.5 2.03 3.5 2.98 2.93 2.98 2.93 4.52 2.44 4.52 2.44 5.81 1.93 5.81 1.93 7.33 2.44 7.33 2.44 8.45 2.93 8.45 2.93 9.65 3.5 9.65 3.5 10.54 4.14 10.54 4.14 11.66 4.61 11.66 4.61 10.54 5.24 10.54 5.24 9.65 5.81 9.65 5.81 8.45 6.31 8.45 6.31 7.33 6.89 7.33"/><polygon class="cls-1" points="10.05 10.48 10.05 11.22 9.73 11.22 9.73 12.06 9.37 12.06 9.37 12.92 9.73 12.92 9.73 13.76 10.05 13.76 10.05 14.5 10.55 14.5 10.55 13.76 10.87 13.76 10.87 12.92 11.27 12.92 11.27 12.06 10.87 12.06 10.87 11.22 10.55 11.22 10.55 10.48 10.05 10.48"/><polygon class="cls-1" points="6.77 12.92 6.77 13.76 7.09 13.76 7.09 14.5 7.59 14.5 7.59 13.76 7.91 13.76 7.91 12.92 8.28 12.92 8.28 12.06 7.91 12.06 7.91 11.22 7.59 11.22 7.59 10.48 7.09 10.48 7.09 11.22 6.77 11.22 6.77 12.06 6.43 12.06 6.43 11.22 6.12 11.22 6.12 10.48 5.61 10.48 5.61 11.22 5.29 11.22 5.29 12.06 4.92 12.06 4.92 12.92 5.29 12.92 5.29 13.76 5.61 13.76 5.61 14.5 6.12 14.5 6.12 13.76 6.43 13.76 6.43 12.92 6.77 12.92"/><polygon class="cls-1" points="6.89 52.66 6.89 51.54 7.39 51.54 7.39 50.34 7.96 50.34 7.96 49.45 8.6 49.45 8.6 48.33 9.06 48.33 9.06 49.45 9.7 49.45 9.7 50.34 10.27 50.34 10.27 51.54 10.77 51.54 10.77 52.66 11.27 52.66 11.27 54.19 10.77 54.19 10.77 55.47 10.27 55.47 10.27 57.01 9.7 57.01 9.7 57.97 7.96 57.97 7.96 57.01 7.39 57.01 7.39 55.47 6.89 55.47 6.89 54.19 6.31 54.19 6.31 55.47 5.81 55.47 5.81 57.01 5.24 57.01 5.24 57.97 3.5 57.97 3.5 57.01 2.93 57.01 2.93 55.47 2.44 55.47 2.44 54.19 1.93 54.19 1.93 52.66 2.44 52.66 2.44 51.54 2.93 51.54 2.93 50.34 3.5 50.34 3.5 49.45 4.14 49.45 4.14 48.33 4.61 48.33 4.61 49.45 5.24 49.45 5.24 50.34 5.81 50.34 5.81 51.54 6.31 51.54 6.31 52.66 6.89 52.66"/><polygon class="cls-1" points="10.05 49.52 10.05 48.77 9.73 48.77 9.73 47.93 9.37 47.93 9.37 47.08 9.73 47.08 9.73 46.23 10.05 46.23 10.05 45.49 10.55 45.49 10.55 46.23 10.87 46.23 10.87 47.08 11.27 47.08 11.27 47.93 10.87 47.93 10.87 48.77 10.55 48.77 10.55 49.52 10.05 49.52"/><polygon class="cls-1" points="6.77 47.93 6.77 48.77 7.09 48.77 7.09 49.52 7.59 49.52 7.59 48.77 7.91 48.77 7.91 47.93 8.28 47.93 8.28 47.08 7.91 47.08 7.91 46.23 7.59 46.23 7.59 45.49 7.09 45.49 7.09 46.23 6.77 46.23 6.77 47.08 6.43 47.08 6.43 46.23 6.12 46.23 6.12 45.49 5.61 45.49 5.61 46.23 5.29 46.23 5.29 47.08 4.92 47.08 4.92 47.93 5.29 47.93 5.29 48.77 5.61 48.77 5.61 49.52 6.12 49.52 6.12 48.77 6.43 48.77 6.43 47.93 6.77 47.93"/><polygon class="cls-1" points="6.99 41.74 6.99 43.14 7.54 43.14 7.54 44.42 8.14 44.42 8.14 45.65 8.53 45.65 8.53 46.39 9.1 46.39 9.1 45.65 9.48 45.65 9.48 44.51 10.27 44.51 10.27 43.14 10.89 43.14 10.89 41.99 11.27 41.99 11.27 40.3 10.89 40.3 10.89 39.12 10.35 39.12 10.35 37.47 9.85 37.47 9.85 36.29 9.28 36.29 9.28 37.47 8.71 37.47 8.71 39.12 8.34 39.12 8.34 40.3 8.88 40.3 8.88 41.99 8.21 41.99 8.21 40.88 7.74 40.88 7.74 38.85 7.14 38.85 7.14 37.33 7.71 37.33 7.71 36.17 8.24 36.17 8.24 34.77 8.81 34.77 8.81 33.28 9.31 33.28 9.31 31.92 9.87 31.92 9.87 33.24 10.3 33.24 10.3 34.33 10.71 34.33 10.71 35.73 10.99 35.73 10.99 36.81 11.27 36.81 11.27 32.72 10.86 32.72 10.86 31.36 10.37 31.36 10.37 30.46 9.92 30.46 9.92 29.54 10.37 29.54 10.37 28.63 10.86 28.63 10.86 27.27 11.27 27.27 11.27 23.18 10.99 23.18 10.99 24.26 10.71 24.26 10.71 25.67 10.3 25.67 10.3 26.75 9.87 26.75 9.87 28.07 9.31 28.07 9.31 26.71 8.81 26.71 8.81 25.23 8.24 25.23 8.24 23.82 7.71 23.82 7.71 22.66 7.14 22.66 7.14 21.14 7.74 21.14 7.74 19.11 8.21 19.11 8.21 18 8.88 18 8.88 19.7 8.34 19.7 8.34 20.88 8.71 20.88 8.71 22.52 9.28 22.52 9.28 23.7 9.85 23.7 9.85 22.52 10.35 22.52 10.35 20.88 10.89 20.88 10.89 19.7 11.27 19.7 11.27 18 10.89 18 10.89 16.85 10.27 16.85 10.27 15.49 9.48 15.49 9.48 14.34 9.1 14.34 9.1 13.6 8.53 13.6 8.53 14.34 8.14 14.34 8.14 15.57 7.54 15.57 7.54 16.85 6.99 16.85 6.99 18.25 6.21 18.25 6.21 16.85 5.66 16.85 5.66 15.57 5.06 15.57 5.06 14.34 4.67 14.34 4.67 13.6 4.1 13.6 4.1 14.34 3.72 14.34 3.72 15.49 2.93 15.49 2.93 16.85 2.31 16.85 2.31 18 1.93 18 1.93 19.7 2.31 19.7 2.31 20.88 2.85 20.88 2.85 22.52 3.35 22.52 3.35 23.7 3.92 23.7 3.92 22.52 4.49 22.52 4.49 20.88 4.86 20.88 4.86 19.7 4.32 19.7 4.32 18 4.99 18 4.99 19.11 5.46 19.11 5.46 21.14 6.06 21.14 6.06 22.66 5.5 22.66 5.5 23.82 4.96 23.82 4.96 25.23 4.39 25.23 4.39 26.71 3.89 26.71 3.89 28.07 3.33 28.07 3.33 26.75 2.9 26.75 2.9 25.67 2.5 25.67 2.5 24.26 2.21 24.26 2.21 23.18 1.93 23.18 1.93 27.27 2.34 27.27 2.34 28.63 2.83 28.63 2.83 29.54 3.28 29.54 3.28 30.46 2.83 30.46 2.83 31.36 2.34 31.36 2.34 32.72 1.93 32.72 1.93 36.81 2.21 36.81 2.21 35.73 2.5 35.73 2.5 34.33 2.9 34.33 2.9 33.24 3.33 33.24 3.33 31.92 3.89 31.92 3.89 33.28 4.39 33.28 4.39 34.77 4.96 34.77 4.96 36.17 5.5 36.17 5.5 37.33 6.06 37.33 6.06 38.85 5.46 38.85 5.46 40.88 4.99 40.88 4.99 41.99 4.32 41.99 4.32 40.3 4.86 40.3 4.86 39.12 4.49 39.12 4.49 37.47 3.92 37.47 3.92 36.29 3.35 36.29 3.35 37.47 2.85 37.47 2.85 39.12 2.31 39.12 2.31 40.3 1.93 40.3 1.93 41.99 2.31 41.99 2.31 43.14 2.93 43.14 2.93 44.51 3.72 44.51 3.72 45.65 4.1 45.65 4.1 46.39 4.67 46.39 4.67 45.65 5.06 45.65 5.06 44.42 5.66 44.42 5.66 43.14 6.21 43.14 6.21 41.74 6.99 41.74"/><polygon class="cls-4" points="6.99 36.57 6.99 35.37 7.42 35.37 7.42 34.16 7.87 34.16 7.87 32.72 8.44 32.72 8.44 31.32 9.01 31.32 9.01 30.46 9.42 30.46 9.42 29.54 9.01 29.54 9.01 28.67 8.44 28.67 8.44 27.27 7.87 27.27 7.87 25.83 7.42 25.83 7.42 24.63 6.99 24.63 6.99 23.42 6.21 23.42 6.21 24.63 5.78 24.63 5.78 25.83 5.33 25.83 5.33 27.27 4.76 27.27 4.76 28.67 4.19 28.67 4.19 29.54 3.79 29.54 3.79 30.46 4.19 30.46 4.19 31.32 4.76 31.32 4.76 32.72 5.33 32.72 5.33 34.16 5.78 34.16 5.78 35.37 6.21 35.37 6.21 36.57 6.99 36.57"/><polygon class="cls-1" points="6.87 31.12 6.87 31.76 7.3 31.76 7.3 32.48 7.71 32.48 7.71 31.12 7.3 31.12 7.3 30.44 6.94 30.44 6.94 29.55 7.3 29.55 7.3 28.87 7.71 28.87 7.71 27.51 7.3 27.51 7.3 28.23 6.87 28.23 6.87 28.87 6.33 28.87 6.33 28.23 5.9 28.23 5.9 27.51 5.5 27.51 5.5 28.87 5.9 28.87 5.9 29.55 6.27 29.55 6.27 30.44 5.9 30.44 5.9 31.12 5.5 31.12 5.5 32.48 5.9 32.48 5.9 31.76 6.33 31.76 6.33 31.12 6.87 31.12"/><polygon class="cls-4" points="4.62 9.45 4.62 8.43 5.09 8.43 5.09 7.23 5.59 7.23 5.59 5.91 5.09 5.91 5.09 4.71 4.62 4.71 4.62 3.68 4.12 3.68 4.12 4.71 3.65 4.71 3.65 5.91 3.15 5.91 3.15 7.23 3.65 7.23 3.65 8.43 4.12 8.43 4.12 9.45 4.62 9.45"/><polygon class="cls-4" points="4.62 50.54 4.62 51.56 5.09 51.56 5.09 52.76 5.59 52.76 5.59 54.09 5.09 54.09 5.09 55.29 4.62 55.29 4.62 56.31 4.12 56.31 4.12 55.29 3.65 55.29 3.65 54.09 3.15 54.09 3.15 52.76 3.65 52.76 3.65 51.56 4.12 51.56 4.12 50.54 4.62 50.54"/><polygon class="cls-4" points="8.58 9.45 8.58 8.43 8.11 8.43 8.11 7.23 7.61 7.23 7.61 5.91 8.11 5.91 8.11 4.71 8.58 4.71 8.58 3.68 9.08 3.68 9.08 4.71 9.55 4.71 9.55 5.91 10.05 5.91 10.05 7.23 9.55 7.23 9.55 8.43 9.08 8.43 9.08 9.45 8.58 9.45"/><polygon class="cls-4" points="8.58 50.54 8.58 51.56 8.11 51.56 8.11 52.76 7.61 52.76 7.61 54.09 8.11 54.09 8.11 55.29 8.58 55.29 8.58 56.31 9.08 56.31 9.08 55.29 9.55 55.29 9.55 54.09 10.05 54.09 10.05 52.76 9.55 52.76 9.55 51.56 9.08 51.56 9.08 50.54 8.58 50.54"/><rect class="cls-1" x="1.93" y="2.99" width="0.43" height="1.23"/><rect class="cls-1" x="6.42" y="8.9" width="0.37" height="1.22"/><rect class="cls-1" x="6.42" y="2.03" width="0.37" height="1.34"/><rect class="cls-1" x="6.42" y="25.92" width="0.37" height="1.35"/><rect class="cls-1" x="1.93" y="8.92" width="0.43" height="1.22"/><rect class="cls-1" x="1.93" y="14.93" width="0.43" height="1.21"/><rect class="cls-1" x="1.93" y="21.29" width="0.43" height="1.18"/><rect class="cls-1" x="1.93" y="55.84" width="0.43" height="1.16"/><rect class="cls-1" x="4.19" y="52.75" width="0.37" height="1.35"/><rect class="cls-1" x="6.42" y="49.85" width="0.37" height="1.26"/><rect class="cls-1" x="6.42" y="56.62" width="0.37" height="1.35"/><rect class="cls-1" x="6.42" y="32.72" width="0.37" height="1.35"/><rect class="cls-1" x="1.93" y="49.83" width="0.43" height="1.26"/><rect class="cls-1" x="1.93" y="43.77" width="0.43" height="1.35"/><rect class="cls-1" x="1.93" y="37.56" width="0.43" height="1.28"/><rect class="cls-1" x="1.93" y="29.35" width="0.43" height="1.3"/><rect class="cls-1" x="4.86" y="29.35" width="0.37" height="1.3"/><rect class="cls-1" x="10.84" y="2.99" width="0.43" height="1.23"/><rect class="cls-1" x="8.64" y="5.89" width="0.37" height="1.35"/><rect class="cls-1" x="10.84" y="8.92" width="0.43" height="1.22"/><rect class="cls-1" x="10.84" y="14.93" width="0.43" height="1.21"/><rect class="cls-1" x="10.84" y="21.29" width="0.43" height="1.18"/><rect class="cls-1" x="10.84" y="55.84" width="0.43" height="1.16"/><rect class="cls-1" x="8.64" y="52.75" width="0.37" height="1.35"/><rect class="cls-1" x="10.84" y="49.83" width="0.43" height="1.26"/><rect class="cls-1" x="10.84" y="43.77" width="0.43" height="1.35"/><rect class="cls-1" x="10.84" y="37.56" width="0.43" height="1.28"/><rect class="cls-1" x="10.84" y="29.35" width="0.43" height="1.3"/><rect class="cls-1" x="7.97" y="29.35" width="0.37" height="1.3"/><rect class="cls-1" x="6.42" y="14.85" width="0.37" height="1.21"/><rect class="cls-1" x="6.42" y="43.87" width="0.37" height="1.35"/><rect class="cls-4" x="2.76" y="12.1" width="0.28" height="0.78"/><rect class="cls-4" x="5.73" y="12.1" width="0.28" height="0.78"/><rect class="cls-4" x="2.76" y="47.11" width="0.28" height="0.78"/><rect class="cls-4" x="5.73" y="47.11" width="0.28" height="0.78"/><rect class="cls-4" x="10.17" y="12.1" width="0.28" height="0.78"/><rect class="cls-4" x="7.2" y="12.1" width="0.28" height="0.78"/><rect class="cls-4" x="10.17" y="47.11" width="0.28" height="0.78"/><rect class="cls-4" x="7.2" y="47.11" width="0.28" height="0.78"/><rect class="cls-4" x="4.19" y="5.89" width="0.37" height="1.35"/><rect class="cls-5" x="0.04" y="0.1" width="13.22" height="59.79"/></svg>