<svg id="Capa_1" data-name="Capa 1" xmlns="http://www.w3.org/2000/svg" viewBox="0 0 60 60"><defs><style>.cls-1{fill:#ec1b2e;}</style></defs><title>flag</title><rect class="cls-1" x="-12" width="84" height="60"/><path d="M30,19.64c-.45-.07-.46-.21-.23-.52.09-.13,0-.2-.3-.11s-.48-.26-.6-.4-.1-.16,0-.16a.74.74,0,0,0,.43-.19c.07-.08.05-.18-.13-.14a1.48,1.48,0,0,1-.89-.5c-.09-.13-.11-.19.05-.24a1.34,1.34,0,0,0,.43-.22c.11-.08.05-.17-.16-.21a1.77,1.77,0,0,1-.86-.52c-.06-.08-.13-.18.07-.22a2.18,2.18,0,0,0,.78-.55c.12-.17.14-.36-.23-.2a3.1,3.1,0,0,1-1.52.11c-.91-.43-2.23-1-2.74-.18-.86,0-1.9-.09-1.7,1a.35.35,0,0,0,.31-.22c.08-.15.33-.18.58-.09s.38.18.22.37a.76.76,0,0,1-.58.1,5.86,5.86,0,0,0-.75-.13.89.89,0,0,1-.54-.44c-.13-.25-.45-.54-.66-.36s0,.46.25.65a1.72,1.72,0,0,0,.85.41,3.65,3.65,0,0,1,.73.1c.07.57.81.82,1.43.81a3.51,3.51,0,0,1,2.2.91c1,.8,1.67,3.48,0,3.48-1,0-.87-1-.84-1.63a1.49,1.49,0,0,0-1-1.48c-.7-.25-2.13-.74-2.53-1-.16-.11-.32.29-.35.51s-.19.18-.7,0A5.49,5.49,0,0,1,17.72,16c-.62-1.18-1.8,0-1.21,1,.7,1.2,3,2.17,4.52,2.36a.5.5,0,0,1,0,1c-1.36.19-2.68.17-3.5-.91-.64-.82-1.27-.08-1,.58.59,1.4,2.59,2,4.53,1,.47-.23,1-.19.56.36-1,1.39-2.34,1.6-4,.57-.49-.3-.87-.25-1-.06s-.29.64.28,1.05a3.61,3.61,0,0,0,3.88.24c.47-.24,1.31-.43.56.56s-2.66,1.49-3.44.94-1.75,0-1.13.81a2,2,0,0,0,2.5.32c.59-.32,1.5-.75,1.88-.93s.56.13.13.62c-1,1.12-2,2.05-3.33,1.61-.78-.25-1.49-.29-1.29.67s1.82,1,2.61.54a11.68,11.68,0,0,0,2-1.48c.48-.46,1-.44.43.33-1.19,1.75-2.21,3-3.91,2.71s-1.19.64-.85.94c1,.84,2.68.62,4.71-1.88.16-.19.43-.14.29.22-.91,2.34-2.42,3.85-3.88,3.49-.76-.19-1.51.23-.73.91s2.46.47,3.61-.8a17.81,17.81,0,0,0,2.1-2.66c.25-.48.63-.49.59.13a3.06,3.06,0,0,1-1.32,2.23c-.42.2-.8.67,0,1s1.73-1.07,2.49-3.14a.32.32,0,0,1,.61.16,2.17,2.17,0,0,1-.69,1.51c-.35.32-.07.85.4.64a2.47,2.47,0,0,0,1.36-1.42c.14-.36.46-.49.28.08-.54,1.72-1.75,2.55-3.34,3.34.24.24.45.5.67.72-1,.5-2,.83-2.82,1.17a5.81,5.81,0,0,1-1.5-1.08.84.84,0,0,0-1.2-.54c-.74-.29-1.26-.22-1.31.47.43-.07.79-.14,1.1.15a.82.82,0,0,0,1,.35c.47.29.88.58,1.17.77-.91,0-1.58-.07-2.06-.12-.45-.45-.88-.45-1.21-.14a.9.9,0,0,0-1.13.61c.42,0,.8-.19,1.07,0a.85.85,0,0,0,1.24.13c.61,0,1.78,0,2,0l-1.11.66c-.94-.19-1.45.18-1.38.86a.85.85,0,0,0,.06,1.07,1.77,1.77,0,0,1,.44-.86.9.9,0,0,0,1.17-.72l1-.66a.63.63,0,0,1,.78-.08c.43.19.83.35,1.08.49a.63.63,0,0,0,1,.33,1.54,1.54,0,0,1,.54.59.67.67,0,0,0-.3-1,.71.71,0,0,0-1-.37L22,37c.62-.23,2.2-.82,2.76-1.05.52.39,1.11.78,1.54.66a4.74,4.74,0,0,1,.53-1.24,11,11,0,0,1,1.37-2.18c.43-.5.87-.21.84.48-.07,1.67-1.31,4.17-3.12,4.26-.62,0-.87.16-.53.63a1.53,1.53,0,0,0,1.86.08c.55-.41.74-.39.63.15s-.74.75-1.2.78c-.67,0-1.43.29-.81.86s1.64.26,2.39-.6c.26-.3.46-.38.44.09a1.46,1.46,0,0,1-1,1.47c-.51.11-1,.24-.88.54a1.16,1.16,0,0,0,1.48.33,2.43,2.43,0,0,0,1-1c.1-.27.29-.12.24.25-.11.8-.67.78-.67,1.44A3.53,3.53,0,0,0,30,45a3.53,3.53,0,0,0,1.18-2c0-.66-.56-.64-.67-1.44-.05-.37.14-.52.24-.25a2.43,2.43,0,0,0,1,1A1.16,1.16,0,0,0,33.25,42c.14-.3-.37-.43-.88-.54a1.46,1.46,0,0,1-1-1.47c0-.47.18-.39.44-.09.75.86,1.77,1.18,2.39.6s-.14-.81-.81-.86c-.46,0-1.08-.23-1.2-.78s.08-.56.63-.15a1.53,1.53,0,0,0,1.86-.08c.34-.47.09-.59-.53-.63-1.81-.09-3-2.59-3.12-4.26,0-.69.41-1,.84-.48a11,11,0,0,1,1.37,2.18,4.74,4.74,0,0,1,.53,1.24c.43.12,1-.27,1.54-.66.56.23,2.14.82,2.76,1.05l-.93.41a.71.71,0,0,0-1,.37.67.67,0,0,0-.3,1,1.54,1.54,0,0,1,.54-.59.63.63,0,0,0,1-.33c.25-.14.65-.3,1.08-.49a.63.63,0,0,1,.78.08l1,.66a.9.9,0,0,0,1.17.72,1.77,1.77,0,0,1,.44.86.85.85,0,0,0,.06-1.07c.07-.68-.44-1-1.38-.86l-1.11-.66c.27,0,1.44,0,2.05,0A.85.85,0,0,0,42.73,37c.27-.14.65,0,1.07,0a.9.9,0,0,0-1.13-.61c-.33-.31-.76-.31-1.21.14-.48.05-1.15.09-2.06.12.29-.19.7-.48,1.17-.77a.82.82,0,0,0,1-.35c.31-.29.67-.22,1.1-.15-.05-.69-.57-.76-1.31-.47a.84.84,0,0,0-1.2.54,5.81,5.81,0,0,1-1.5,1.08c-.81-.34-1.84-.67-2.82-1.17.22-.22.43-.48.67-.72-1.59-.79-2.8-1.62-3.34-3.34-.18-.57.14-.44.28-.08a2.47,2.47,0,0,0,1.36,1.42c.47.21.75-.32.4-.64a2.17,2.17,0,0,1-.69-1.51.32.32,0,0,1,.61-.16c.76,2.07,1.7,3.49,2.49,3.14s.42-.82,0-1a3.06,3.06,0,0,1-1.32-2.23c0-.62.34-.61.59-.13A17.81,17.81,0,0,0,39,32.8c1.15,1.27,2.74,1.56,3.61.8s0-1.1-.73-.91c-1.46.36-3-1.15-3.88-3.49-.14-.36.13-.41.29-.22,2,2.5,3.74,2.72,4.71,1.88.34-.3.73-1.24-.85-.94s-2.72-1-3.91-2.71c-.53-.77,0-.79.43-.33a11.68,11.68,0,0,0,2,1.48c.79.48,2.4.41,2.61-.54s-.51-.92-1.29-.67c-1.36.44-2.36-.49-3.33-1.61-.43-.49-.25-.79.13-.62s1.29.61,1.88.93a2,2,0,0,0,2.5-.32c.62-.86-.35-1.37-1.13-.81s-2.69,0-3.44-.94.09-.8.56-.56A3.61,3.61,0,0,0,43.05,23c.57-.41.48-.71.28-1.05s-.49-.24-1,.06c-1.67,1-3,.82-4-.57-.4-.55.09-.59.56-.36,1.94.94,3.94.35,4.53-1,.28-.66-.35-1.4-1-.58-.82,1.08-2.14,1.1-3.5.91a.5.5,0,0,1,0-1c1.48-.19,3.82-1.16,4.52-2.36.59-1-.59-2.15-1.21-1a5.49,5.49,0,0,1-3.35,2.39c-.51.16-.69.14-.7,0s-.19-.62-.35-.51c-.4.23-1.83.72-2.53,1a1.49,1.49,0,0,0-1,1.48c0,.59.19,1.63-.84,1.63-1.66,0-1-2.68,0-3.48a3.51,3.51,0,0,1,2.2-.91c.62,0,1.36-.24,1.43-.81a3.65,3.65,0,0,1,.73-.1,1.72,1.72,0,0,0,.85-.41c.21-.19.46-.48.25-.65s-.53.11-.66.36a.89.89,0,0,1-.54.44,5.86,5.86,0,0,0-.75.13.76.76,0,0,1-.58-.1c-.16-.19,0-.3.22-.37s.5-.06.58.09a.35.35,0,0,0,.31.22c.2-1.06-.84-1-1.7-1-.51-.81-1.83-.25-2.74.18a3.1,3.1,0,0,1-1.52-.11c-.37-.16-.35,0-.23.2a2.18,2.18,0,0,0,.78.55c.2,0,.13.14.07.22a1.77,1.77,0,0,1-.86.52c-.21,0-.27.13-.16.21a1.34,1.34,0,0,0,.43.22c.16.05.14.11.05.24a1.48,1.48,0,0,1-.89.5c-.18,0-.2.06-.13.14a.74.74,0,0,0,.43.19c.13,0,.14,0,0,.16s-.38.46-.6.4-.39,0-.3.11C30.46,19.43,30.45,19.57,30,19.64Z"/><path class="cls-1" d="M25.78,16.08A1,1,0,0,0,25,16c-.22.09-.27.32,0,.4a1.53,1.53,0,0,0,.76,0C25.93,16.38,26,16.19,25.78,16.08Z"/><path class="cls-1" d="M34.22,16.08A1,1,0,0,1,35,16c.22.09.27.32,0,.4a1.53,1.53,0,0,1-.76,0C34.07,16.38,34,16.19,34.22,16.08Z"/></svg>