<svg id="Capa_1" data-name="Capa 1" xmlns="http://www.w3.org/2000/svg" viewBox="0 0 60 60"><defs><style>.cls-1{fill:#003876;}.cls-1,.cls-2{stroke:#000;stroke-width:0.25px;}.cls-2,.cls-4{fill:#fff;}.cls-3{fill:#e03a3e;}</style></defs><title>flag</title><rect class="cls-1" x="-0.13" width="61.15" height="61.1"/><polygon class="cls-2" points="-0.13 5.09 6.32 5.09 -0.13 1.86 -0.13 0 3.56 0 12.58 4.5 12.58 0 17.66 0 17.66 4.5 26.68 0 30.41 0 30.41 1.86 23.92 5.09 30.41 5.09 30.41 10.19 23.92 10.19 30.41 13.43 30.41 15.29 26.68 15.29 17.66 10.79 17.66 15.29 12.58 15.29 12.58 10.79 3.56 15.29 -0.13 15.29 -0.13 13.43 6.32 10.19 -0.13 10.19 -0.13 5.09"/><polygon class="cls-3" points="28 0 17.81 5.1 20.25 5.1 30.41 0 28 0"/><polygon class="cls-3" points="30.41 15.29 20.24 10.19 22.69 10.19 30.41 14.07 30.41 15.29"/><polygon class="cls-3" points="10.08 5.1 -0.13 0 -0.13 1.22 7.62 5.1 10.08 5.1"/><polygon class="cls-3" points="10.06 10.19 -0.13 15.29 2.31 15.29 12.5 10.19 10.06 10.19"/><polygon class="cls-3" points="-0.13 6.15 13.66 6.15 13.66 0 16.65 0 16.65 6.15 30.41 6.15 30.41 9.14 16.65 9.14 16.65 15.29 13.66 15.29 13.66 9.14 -0.13 9.14 -0.13 6.15"/><polygon class="cls-4" points="16.05 21.09 18.75 20.06 17.16 22.46 19.62 23.92 16.76 24.18 17.16 27.02 15.16 24.93 13.18 27.02 13.56 24.18 10.71 23.92 13.16 22.46 11.58 20.06 14.27 21.09 15.16 18.35 16.05 21.09"/><polygon class="cls-4" points="46.15 4.21 47.43 3.73 46.67 4.86 47.84 5.56 46.49 5.68 46.67 7.03 45.73 6.04 44.79 7.03 44.97 5.68 43.62 5.56 44.78 4.86 44.03 3.73 45.31 4.21 45.73 2.91 46.15 4.21"/><polygon class="cls-4" points="46.15 24.6 47.43 24.11 46.67 25.25 47.84 25.94 46.49 26.06 46.67 27.41 45.73 26.42 44.79 27.41 44.97 26.06 43.62 25.94 44.78 25.25 44.03 24.11 45.31 24.6 45.73 23.3 46.15 24.6"/><polygon class="cls-4" points="52.94 10.45 54.22 9.96 53.47 11.1 54.63 11.79 53.28 11.91 53.47 13.26 52.52 12.27 51.58 13.26 51.76 11.91 50.41 11.79 51.57 11.1 50.83 9.96 52.1 10.45 52.52 9.15 52.94 10.45"/><polygon class="cls-4" points="38.5 12.49 39.78 12.01 39.03 13.14 40.2 13.84 38.84 13.96 39.03 15.31 38.08 14.32 37.14 15.31 37.33 13.96 35.98 13.84 37.13 13.14 36.39 12.01 37.66 12.49 38.08 11.2 38.5 12.49"/><polygon class="cls-4" points="48.78 15.23 48.49 16.15 47.52 16.15 48.31 16.72 48.01 17.64 48.79 17.07 49.57 17.64 49.27 16.71 50.06 16.15 49.09 16.15 48.78 15.23"/></svg>