<svg id="Capa_1" data-name="Capa 1" xmlns="http://www.w3.org/2000/svg" viewBox="0 0 60 60"><defs><style>.cls-1{fill:#f42525;}.cls-2{fill:#fff;}</style></defs><title>flag</title><rect class="cls-1" width="60" height="60"/><polygon class="cls-2" points="19.67 16.92 22.28 24.27 16.05 19.66 16.04 19.62 16.02 19.66 9.79 24.27 12.4 16.92 12.47 16.87 12.44 16.87 6.02 12.53 13.74 12.54 15.86 5.15 18.25 12.53 18.23 12.55 18.26 12.54 26.05 12.53 19.62 16.87 19.6 16.87 19.67 16.92"/><polygon class="cls-2" points="36.81 24.41 37.25 22.89 37.74 24.39 37.3 25.81 36.81 24.41"/><polygon class="cls-2" points="37.74 24.39 39.33 24.39 38.02 25.28 36.54 25.25 37.74 24.39"/><polygon class="cls-2" points="38.02 25.29 38.56 26.79 37.29 25.85 36.82 24.44 38.02 25.29"/><polygon class="cls-2" points="36.83 24.39 35.24 24.39 36.55 25.28 38.03 25.25 36.83 24.39"/><polygon class="cls-2" points="36.55 25.29 36.01 26.79 37.28 25.85 37.75 24.44 36.55 25.29"/><polygon class="cls-2" points="29.61 31.97 30.47 30.63 30.51 32.21 29.69 33.44 29.61 31.97"/><polygon class="cls-2" points="30.51 32.21 32.04 32.66 30.53 33.15 29.12 32.7 30.51 32.21"/><polygon class="cls-2" points="30.53 33.15 30.62 34.74 29.67 33.48 29.62 32 30.53 33.15"/><polygon class="cls-2" points="29.64 31.96 28.11 31.51 29.12 32.73 30.55 33.12 29.64 31.96"/><polygon class="cls-2" points="29.11 32.74 28.18 34.03 29.66 33.48 30.5 32.26 29.11 32.74"/><polygon class="cls-2" points="38.7 15.09 39.92 14.06 39.48 15.58 38.33 16.51 38.7 15.09"/><polygon class="cls-2" points="39.48 15.59 40.81 16.47 39.23 16.48 38.01 15.63 39.48 15.59"/><polygon class="cls-2" points="39.23 16.49 38.84 18.03 38.3 16.54 38.69 15.12 39.23 16.49"/><polygon class="cls-2" points="38.73 15.08 37.41 14.19 38.01 15.66 39.25 16.46 38.73 15.08"/><polygon class="cls-2" points="37.99 15.66 36.72 16.61 38.3 16.54 39.47 15.63 37.99 15.66"/><polygon class="cls-2" points="34.21 6.32 35.07 4.98 35.1 6.56 34.27 7.79 34.21 6.32"/><polygon class="cls-2" points="35.1 6.57 36.62 7.03 35.11 7.5 33.7 7.04 35.1 6.57"/><polygon class="cls-2" points="35.11 7.51 35.19 9.1 34.25 7.82 34.21 6.34 35.11 7.51"/><polygon class="cls-2" points="34.24 6.3 32.71 5.84 33.71 7.06 35.13 7.47 34.24 6.3"/><polygon class="cls-2" points="33.7 7.07 32.75 8.35 34.24 7.82 35.1 6.61 33.7 7.07"/></svg>