<svg id="Capa_1" data-name="Capa 1" xmlns="http://www.w3.org/2000/svg" viewBox="0 0 60 60"><defs><style>.cls-1{fill:#2b4ba5;}.cls-2{fill:#fff;}.cls-3{fill:#dd1212;}</style></defs><title>flag</title><rect class="cls-1" y="47.98" width="61.92" height="12.14"/><rect class="cls-2" y="36.21" width="61.92" height="12.14"/><rect class="cls-1" y="24.14" width="61.92" height="12.14"/><rect class="cls-2" y="12.07" width="61.92" height="12.14"/><rect class="cls-1" width="61.92" height="12.14"/><polygon class="cls-3" points="0.05 59.98 0.05 0.04 34.64 30.02 0.05 59.98"/><polygon class="cls-2" points="15.17 30.64 17.32 36.71 12.18 32.91 12.18 32.88 12.16 32.91 7.02 36.71 9.18 30.64 9.23 30.61 9.2 30.61 3.9 27.03 10.28 27.04 12.02 20.93 14 27.03 13.99 27.05 14 27.04 20.44 27.03 15.13 30.61 15.11 30.61 15.17 30.64"/></svg>