<svg id="Layer_1" data-name="Layer 1" xmlns="http://www.w3.org/2000/svg" viewBox="0 0 24 24"><defs><style>.cls-1{fill:#3d3d3d;stroke-width:0.5px;}.cls-1,.cls-2{stroke:#3d3d3d;stroke-miterlimit:10;}.cls-2{fill:none;}</style></defs><title>WEB</title><path class="cls-1" d="M16,17.88H8l-.06,0a2.12,2.12,0,0,1-1.84-2.11V8.15a2,2,0,0,1,.19-.88A2.1,2.1,0,0,1,8.24,6h7.64a2.11,2.11,0,0,1,1.91,1.39c.06.16.09.34.14.51V16a.14.14,0,0,0,0,.06,2.1,2.1,0,0,1-1.4,1.72A4.21,4.21,0,0,1,16,17.88Zm-4.46-11H8.23a1.23,1.23,0,0,0-.27,0,1.26,1.26,0,0,0-1,1.32v7.48a1.51,1.51,0,0,0,0,.3,1.25,1.25,0,0,0,1.27,1h3.36Zm.86,0v4.65h4.65V8.18a1.23,1.23,0,0,0,0-.27,1.26,1.26,0,0,0-1.29-1H12.43Zm0,10.16h3.34A1.23,1.23,0,0,0,16,17a1.26,1.26,0,0,0,1-1.3V12.5a.49.49,0,0,0,0-.12H12.43Z"/><circle class="cls-2" cx="12" cy="12" r="11.08"/></svg>