<svg id="Layer_1" data-name="Layer 1" xmlns="http://www.w3.org/2000/svg" viewBox="0 0 24 24"><defs><style>.cls-1{fill:#3d3d3d;}.cls-2{fill:none;stroke:#3d3d3d;stroke-miterlimit:10;}</style></defs><title>WEB</title><path class="cls-1" d="M14.66,6.15h-.39l.2-.19a.66.66,0,0,0,0-.94.68.68,0,0,0-1,0L12.19,6.35a.66.66,0,0,0,0,.94h0l1.33,1.33a.66.66,0,0,0,.94,0h0a.66.66,0,0,0,0-.94h0l-.2-.19h.39a2,2,0,0,1,2,2V10.8a.67.67,0,1,0,1.33,0V9.48A3.33,3.33,0,0,0,14.66,6.15Zm0,9.31H14V10.8a.66.66,0,0,0-.66-.66H8.68V9.48a.67.67,0,1,0-1.33,0v.66H6.68a.67.67,0,0,0,0,1.33h.67v4.65a.66.66,0,0,0,.66.66h4.65v.67a.66.66,0,0,0,.67.66.65.65,0,0,0,.66-.66v-.67h.67a.66.66,0,0,0,0-1.32Zm-2,0h-4v-4h4Z"/><circle class="cls-2" cx="12" cy="12" r="11.08"/></svg>