<svg id="Layer_1" data-name="Layer 1" xmlns="http://www.w3.org/2000/svg" viewBox="0 0 24 24"><defs><style>.cls-1{fill:#3d3d3d;}.cls-2{fill:none;stroke:#3d3d3d;stroke-miterlimit:10;}</style></defs><title>WEB</title><path class="cls-1" d="M12,12a.62.62,0,0,0-.62.62v1.87a.62.62,0,1,0,1.24,0V12.62A.62.62,0,0,0,12,12Zm3.11-2.49V8.27a3.11,3.11,0,0,0-6.22,0V9.51A1.87,1.87,0,0,0,7,11.38v4.35A1.87,1.87,0,0,0,8.89,17.6h6.22A1.87,1.87,0,0,0,17,15.73V11.38A1.87,1.87,0,0,0,15.11,9.51Zm-5-1.24a1.87,1.87,0,0,1,3.74,0V9.51H10.13Zm5.6,7.46a.62.62,0,0,1-.62.62H8.89a.62.62,0,0,1-.62-.62V11.38a.62.62,0,0,1,.62-.62h6.22a.62.62,0,0,1,.62.62Z"/><circle class="cls-2" cx="12" cy="12" r="11.08"/></svg>