<svg id="Layer_1" data-name="Layer 1" xmlns="http://www.w3.org/2000/svg" xmlns:xlink="http://www.w3.org/1999/xlink" viewBox="0 0 24 24"><defs><style>.cls-1,.cls-5{fill:none;}.cls-2{fill:#4571b8;}.cls-3{clip-path:url(#clip-path);}.cls-4{fill:#385b8f;opacity:0.6;isolation:isolate;}.cls-5{stroke:#fff;stroke-miterlimit:10;}</style><clipPath id="clip-path"><circle class="cls-1" cx="12" cy="12" r="10.94"/></clipPath></defs><title>WEB</title><circle class="cls-2" cx="12" cy="12" r="10.94"/><g class="cls-3"><path class="cls-4" d="M5.49,12.79l6,14.46,10.92-7.13S20.09,15,18.27,11.2c-.2-.42,0,.48-.09,1.08a1.34,1.34,0,0,1-.72,1.06c-.23,0-.78.31-1.17.08s-.88-1.16-.66-.59c1.4,3.6,4.2,8.43,3.52,8.42s-1.16.49-1.2.37c-.17-.61-4.41-10.41-4.41-10.41l-.2,1.73L12,13.46l-1.65-1L15,23.28l-.87.2L8.6,11,8.42,12.7l-1.32.8Z"/></g><circle class="cls-5" cx="7.07" cy="12" r="1.5"/><circle class="cls-5" cx="12.04" cy="12" r="1.5"/><circle class="cls-5" cx="16.77" cy="12" r="1.5"/></svg>