<svg id="Layer_1" data-name="Layer 1" xmlns="http://www.w3.org/2000/svg" xmlns:xlink="http://www.w3.org/1999/xlink" viewBox="0 0 24 24"><defs><style>.cls-1{fill:none;}.cls-2{fill:#fc609f;}.cls-3{clip-path:url(#clip-path);}.cls-4{opacity:0.1;}.cls-5{fill:#fff;}</style><clipPath id="clip-path"><circle class="cls-1" cx="12" cy="12" r="11.1"/></clipPath></defs><title>WEB</title><circle class="cls-2" cx="12" cy="12" r="11.1"/><g class="cls-3"><path class="cls-4" d="M16.29,4.81l7.59,13.43S17.11,23.4,16,23.36a5.94,5.94,0,0,0-2.61,1L7,16.83l3.22.05.92-2.72-.27-4,2.4-.74,2.29-.59Z"/></g><path class="cls-5" d="M16.29,4.81a.65.65,0,0,0-.57-.13L10.42,6a.66.66,0,0,0-.5.66v6.86a2.28,2.28,0,0,0-1-.23,2.32,2.32,0,1,0,2.31,2.32V10.49L16,9.31h.05l.12-.1.1-.06.09-.1a.53.53,0,0,0,.06-.1.4.4,0,0,0,0-.25,0,0,0,0,0,0,0V5.34A.67.67,0,0,0,16.29,4.81ZM8.93,16.6a1,1,0,1,1,1-1A1,1,0,0,1,8.93,16.6Zm6.29-8.47-4,1v-2l4-1Z"/></svg>