<svg id="Layer_1" data-name="Layer 1" xmlns="http://www.w3.org/2000/svg" xmlns:xlink="http://www.w3.org/1999/xlink" viewBox="0 0 24 24"><defs><style>.cls-1{fill:none;}.cls-2{fill:#ef3c3c;}.cls-3{clip-path:url(#clip-path);}.cls-4{opacity:0.1;}.cls-5{fill:#fff;stroke:#fff;stroke-miterlimit:10;stroke-width:0.25px;}</style><clipPath id="clip-path"><circle class="cls-1" cx="12" cy="12" r="11.1"/></clipPath></defs><title>WEB</title><circle class="cls-2" cx="12" cy="12" r="11.1"/><g class="cls-3"><path class="cls-4" d="M14.64,8.83,23.1,19.42s-6,4-7.06,3.94a3.54,3.54,0,0,0-2.14,1.07L8.36,16.57l1.88,1.07,1.27.38,4-1.74.4-3.5L15.14,11Z"/></g><path class="cls-5" d="M11.69,18.4c-.23,0-.47-.06-.69-.12a4.3,4.3,0,0,1-3.28-3.34,5.21,5.21,0,0,1,0-2.29A11.32,11.32,0,0,1,9.28,8.91a18.79,18.79,0,0,1,2.41-3.15A.39.39,0,0,1,12,5.6a.38.38,0,0,1,.36.38v3.1a.82.82,0,0,0,.68.85.83.83,0,0,0,1-.78.37.37,0,0,1,.4-.4.31.31,0,0,1,.29.17,11,11,0,0,1,1.6,4.16,4.73,4.73,0,0,1-.26,2.58,4.34,4.34,0,0,1-3.66,2.72l-.1,0ZM11.63,7h0l0,.07A17.6,17.6,0,0,0,9.8,9.5a10.44,10.44,0,0,0-1.38,3.65,4.4,4.4,0,0,0,.06,1.77,3.64,3.64,0,0,0,7.16-.79,7,7,0,0,0-.45-2.53A10.29,10.29,0,0,0,14.5,10l-.1.11a1.56,1.56,0,0,1-1.14.55,1.58,1.58,0,0,1-1.63-1.56c0-.67,0-1.34,0-2Z"/><path class="cls-5" d="M13.18,12.68h-.63a.38.38,0,1,1,0-.75H14.1a.38.38,0,0,1,.41.41v1.55a.37.37,0,0,1-.38.39.37.37,0,0,1-.37-.4v-.66l-.12.11L12,15a.4.4,0,0,1-.67,0l-.8-.81-.57.57a.38.38,0,0,1-.57-.49c.29-.3.59-.6.9-.89a.36.36,0,0,1,.52,0l.75.74.07.1Z"/></svg>