<svg id="Layer_1" data-name="Layer 1" xmlns="http://www.w3.org/2000/svg" xmlns:xlink="http://www.w3.org/1999/xlink" viewBox="0 0 24 24"><defs><style>.cls-1{fill:none;}.cls-2{fill:#3e9aed;}.cls-3{clip-path:url(#clip-path);}.cls-4{opacity:0.1;}.cls-5{fill:#fff;}</style><clipPath id="clip-path"><circle class="cls-1" cx="12" cy="12" r="11.1"/></clipPath></defs><title>WEB</title><circle class="cls-2" cx="12" cy="12" r="11.1"/><g class="cls-3"><path class="cls-4" d="M17.14,9.09l6.45,9.48S17.11,23.4,16,23.36a3.54,3.54,0,0,0-2.14,1.07l-5-7.53,1.89-.31,1.83.22,2.9-.53,1.2-1.36-.07-2.27Z"/></g><path class="cls-5" d="M15.14,13.57V8.33a1.57,1.57,0,0,0-1.57-1.57H8.33A1.58,1.58,0,0,0,6.76,8.33v5.24a1.57,1.57,0,0,0,1.57,1.57h5.24A1.57,1.57,0,0,0,15.14,13.57ZM7.81,8.33a.52.52,0,0,1,.52-.52h5.24a.52.52,0,0,1,.53.52v2.29l-.57-.57a1.31,1.31,0,0,0-.95-.4h0a1.38,1.38,0,0,0-.95.4l-.47.47-.43-.42a1.53,1.53,0,0,0-2.15,0l-.77.77Zm.06,5.48a.53.53,0,0,1-.06-.24V12.35l1.51-1.51a.48.48,0,0,1,.67,0h0l.44.43Zm4.51-3a.25.25,0,0,1,.2-.09h0a.29.29,0,0,1,.21.09l1.31,1.3v1.48a.53.53,0,0,1-.53.53H9.07Zm4.33-1.93a.52.52,0,0,0-.52.52v5.24a1.57,1.57,0,0,1-1.57,1.57H9.38a.52.52,0,0,0-.52.52.52.52,0,0,0,.52.53h5.24a2.62,2.62,0,0,0,2.62-2.62V9.38A.52.52,0,0,0,16.71,8.86Z"/></svg>