<svg id="Layer_1" data-name="Layer 1" xmlns="http://www.w3.org/2000/svg" viewBox="0 0 24 24"><defs><style>.cls-1{fill:none;}.cls-1,.cls-3{stroke:#3d3d3d;stroke-miterlimit:10;}.cls-2,.cls-3{fill:#3d3d3d;}.cls-3{stroke-width:0.5px;}</style></defs><title>WEB ICON</title><circle class="cls-1" cx="12" cy="12" r="11.08"/><path class="cls-2" d="M9.3,14s0,0,0,0a.34.34,0,0,1,.33-.24h5a.36.36,0,0,1,.13.7H9.6a.33.33,0,0,1-.23-.15.61.61,0,0,1-.07-.14Z"/><path class="cls-2" d="M12.55,11.84l0-.05.6-.61a.36.36,0,0,1,.36-.09.36.36,0,0,1,.14.61l-1,1-.23.24a.37.37,0,0,1-.54,0L10.66,11.7a.33.33,0,0,1-.1-.36.31.31,0,0,1,.26-.25.33.33,0,0,1,.34.1l.6.59,0,.05h0V9.09a.35.35,0,0,1,.37-.37.36.36,0,0,1,.35.34v2.76Z"/><path class="cls-3" d="M5.7,11.21c0-.25.06-.5.1-.74A6.38,6.38,0,0,1,8.88,6a6,6,0,0,1,3.56-.9A6.32,6.32,0,0,1,17,7.32a6.12,6.12,0,0,1,1.58,3.61,6.27,6.27,0,0,1-1.91,5.26A6.27,6.27,0,0,1,13.2,18l-.65.08h-.76L11.25,18a6.52,6.52,0,0,1-2.33-.8.21.21,0,0,0-.17,0c-.33.09-.66.2-1,.3l-1.46.45A.25.25,0,0,1,6,17.59s0-.06,0-.09c.22-.78.43-1.56.65-2.34a.33.33,0,0,0,0-.29,6.08,6.08,0,0,1-.79-2.1c-.05-.27-.08-.55-.12-.83Zm.86,6.09.11,0,1.95-.6a.59.59,0,0,1,.53.06,5.82,5.82,0,0,0,2.63.81,5.91,5.91,0,0,0,3.43-.82,6,6,0,0,0,2.86-6A6,6,0,0,0,11,5.74,5.74,5.74,0,0,0,7.09,8.47,5.85,5.85,0,0,0,6.36,13a6,6,0,0,0,.76,1.8.42.42,0,0,1,0,.36c0,.16-.09.33-.14.5Z"/></svg>