<svg id="Layer_1" data-name="Layer 1" xmlns="http://www.w3.org/2000/svg" viewBox="0 0 24 24"><defs><style>.cls-1{fill:none;stroke:#3d3d3d;stroke-miterlimit:10;}.cls-2{fill:#3d3d3d;}</style></defs><title>WEB ICON</title><circle class="cls-1" cx="12" cy="12" r="11.08"/><path class="cls-2" d="M6.64,12.23h0a5,5,0,0,0,5,5h0A5,5,0,0,0,15.8,9.57.63.63,0,0,0,16.36,9V6.88a.63.63,0,0,0-.63-.62h-.08v-1a1.48,1.48,0,0,0-3,0v1h-.09a.63.63,0,0,0-.63.62v.4l-.37,0a5,5,0,0,0-5,5Zm6.59-6.92a.94.94,0,0,1,1.88,0v.94H13.23ZM11.61,7.8a.68.68,0,0,1,.37.12V9a.63.63,0,0,0,.63.63H13c.05.16.09.33.13.51A11.49,11.49,0,0,0,11.61,10a11.65,11.65,0,0,0-1.48.09C10.45,8.68,11.05,7.8,11.61,7.8Zm3.54,1.78a4.25,4.25,0,0,1,.74,1.51,5.4,5.4,0,0,0-2.25-.9c0-.21-.09-.42-.14-.61ZM16,12.23c0,.56-.88,1.16-2.3,1.48a10,10,0,0,0,.1-1.48,11.73,11.73,0,0,0-.1-1.48C15.16,11.07,16,11.67,16,12.23Zm-4.43-1.7a9.76,9.76,0,0,1,1.58.12,11.53,11.53,0,0,1,.11,1.58,11,11,0,0,1-.11,1.58,11,11,0,0,1-1.58.12A10.92,10.92,0,0,1,10,13.81a10.46,10.46,0,0,1,0-3.16A9.67,9.67,0,0,1,11.61,10.53Zm0,6.13h0c-.56,0-1.16-.88-1.48-2.3a10,10,0,0,0,1.48.1,9.89,9.89,0,0,0,1.47-.1C12.77,15.78,12.17,16.66,11.61,16.66ZM9.47,13.71c-1.41-.32-2.29-.92-2.29-1.48h0c0-.56.88-1.16,2.29-1.48a11,11,0,0,0,0,3Zm-2.14-.33a5.63,5.63,0,0,0,2.24.89,5.43,5.43,0,0,0,.89,2.23A4.42,4.42,0,0,1,7.33,13.38Zm5.42,3.12a5.43,5.43,0,0,0,.9-2.23,5.58,5.58,0,0,0,2.23-.89A4.41,4.41,0,0,1,12.75,16.5Zm-.23-9.62a.09.09,0,0,1,.09-.09h3.12a.09.09,0,0,1,.09.09V9a.09.09,0,0,1-.09.09H12.61A.09.09,0,0,1,12.52,9ZM10.46,8a5.54,5.54,0,0,0-.89,2.24,5.48,5.48,0,0,0-2.24.89A4.45,4.45,0,0,1,10.46,8Z"/><path class="cls-2" d="M13.81,8.48a.27.27,0,0,0,.18.08.27.27,0,0,0,.19-.08l.76-.75a.27.27,0,0,0-.38-.38L14,7.92l-.21-.22a.27.27,0,0,0-.37,0,.26.26,0,0,0,0,.38Z"/></svg>